<svg width="69" height="38" viewBox="0 0 69 38" fill="none" xmlns="http://www.w3.org/2000/svg">
<path d="M51.25 5.34L58.99 24.8H43.46L51.25 5.34ZM63.51 36.44H68.45L53.99 1.47H48.45L34.05 36.44H39L42.17 28.68H60.33L63.51 36.44ZM18.67 37.06C25.17 37.06 29.47 34.13 32.48 30.14L28.66 28.09C26.62 31.08 22.91 33.18 18.66 33.18C10.97 33.18 5.01001 27.25 5.01001 18.97C5.01001 10.63 10.98 4.76001 18.66 4.76001C22.91 4.76001 26.61 6.91001 28.66 9.85001L32.42 7.79999C29.57 3.86999 25.16 0.880005 18.66 0.880005C8.5 0.880005 0.390015 8.22 0.390015 18.97C0.400015 29.73 8.51001 37.06 18.67 37.06Z" fill="black"/>
</svg>
