<svg height="50" width="38" xmlns="http://www.w3.org/2000/svg"><g fill-rule="evenodd"><path d="M19.779 37.987V13.749h-2.502v-.182h8.304c7.099 0 12.344 4.178 12.344 12.233 0 8.16-5.486 12.187-12.269 12.187zm3.873-.167h1.854c1.386 0 2.954-.182 4.084-.893 2.442-1.605 3.934-5.147 3.934-11.127 0-6.298-1.025-9.977-4.01-11.4-1.1-.53-2.576-.636-4.355-.636h-1.507zM0 37.986v-.182h1.981l8.862-24.774 8.846 24.956h-6.714v-.182h2.51a12078.8 12078.8 0 0 0-2.797-7.837H4.99s-2.661 7.441-2.812 7.837h1.875v.182zm5.036-8.202h7.591L8.831 19.178z"/></g></svg>