<svg width="180" height="136" viewBox="0 0 180 136" fill="none" xmlns="http://www.w3.org/2000/svg">
<path fill-rule="evenodd" clip-rule="evenodd" d="M180 128.355V124.664H170.66C170.66 124.664 170.586 124.664 170.586 124.742V128.355H170.734C170.734 126.625 171.715 124.816 173.898 124.816H174.051C174.125 124.816 174.125 124.816 174.125 124.895V135.059C174.125 135.137 174.125 135.137 174.051 135.137H172.77V135.285H177.664V135.137H176.309C176.234 135.137 176.234 135.137 176.234 135.059V124.895C176.234 124.816 176.234 124.816 176.309 124.816H176.461C178.645 124.816 179.699 126.551 179.699 128.355C179.773 128.434 180 128.434 180 128.355ZM170.512 132.047C170.512 130.238 169.305 129.484 167.348 128.809C165.465 128.133 164.637 127.527 164.637 126.473C164.637 125.422 165.391 124.664 166.594 124.664C167.949 124.664 169.152 125.945 169.152 127.379H169.305V124.516C169.305 124.441 169.156 124.441 169.156 124.516C169.156 124.664 169.004 124.895 168.555 124.895C167.801 124.895 167.422 124.516 166.594 124.516C165.09 124.516 163.73 125.949 163.73 127.906C163.73 129.711 164.863 130.465 166.219 130.992C168.555 131.82 169.379 132.199 169.379 133.629C169.379 134.609 168.629 135.586 166.895 135.586C164.938 135.586 163.582 133.254 163.582 132.047C163.582 131.973 163.43 131.973 163.43 132.047V135.738C163.43 135.813 163.582 135.813 163.582 135.738C163.582 135.438 163.957 135.137 164.41 135.137C165.012 135.137 165.914 135.738 166.973 135.738C169.23 135.66 170.512 133.703 170.512 132.047ZM162.602 135.359V131.895H162.453C162.453 133.477 161.398 135.285 158.914 135.285H157.406C157.332 135.285 157.332 135.285 157.332 135.211V130.016H157.707C158.914 130.016 159.664 130.992 159.664 132.047H159.816V127.754H159.664C159.664 128.809 158.914 129.789 157.707 129.789H157.332V124.895C157.332 124.816 157.332 124.816 157.406 124.816H158.836C160.719 124.816 161.621 126.473 161.621 127.906H161.773V124.742C161.773 124.742 161.773 124.664 161.699 124.664H153.789V124.816H155.148C155.223 124.816 155.223 124.816 155.223 124.895V135.059C155.223 135.137 155.223 135.137 155.148 135.137H153.789V135.285L162.602 135.359ZM154.242 131.367V131.219H149.348V131.367H150.703C150.777 131.367 150.777 131.367 150.777 131.445V134.156C150.777 134.984 150.324 135.512 148.969 135.512C148.293 135.512 147.766 135.359 147.391 134.91C146.711 134.156 146.637 132.875 146.637 130.09C146.637 127.453 146.863 125.945 147.613 125.27C148.066 124.816 148.594 124.664 149.195 124.664C150.703 124.664 151.984 126.625 151.984 128.129L152.133 128.133V124.516H151.984C151.984 124.664 151.684 124.895 151.23 124.895C150.703 124.895 149.875 124.516 149.195 124.516C146.41 124.516 144.301 127.152 144.301 130.09C144.301 132.949 146.109 135.66 148.973 135.66C150.629 135.66 151.383 134.91 152.059 134.91C152.512 134.91 152.66 135.137 152.738 135.438C152.738 135.512 152.965 135.512 152.965 135.438V131.367C152.965 131.367 152.965 131.293 153.039 131.293H154.242V131.367ZM143.699 135.359V135.211H142.344C142.27 135.211 142.27 135.211 142.27 135.133V124.969C142.27 124.895 142.27 124.895 142.344 124.895H143.699V124.742H138.805V124.895H140.16C140.234 124.895 140.234 124.895 140.234 124.969V135.137C140.234 135.211 140.234 135.211 140.16 135.211H138.805V135.359H143.699ZM136.242 130.012C136.242 132.875 136.02 133.93 135.266 134.605C134.812 135.059 134.359 135.133 133.684 135.133H132.477C132.402 135.133 132.402 135.133 132.402 135.059V124.816C132.402 124.742 132.402 124.742 132.477 124.742H133.68C134.359 124.742 134.887 124.895 135.262 125.27C136.016 126.098 136.242 127.527 136.242 130.016V130.012ZM138.578 130.012C138.578 127.074 136.395 124.664 133.758 124.664H128.938V124.816H130.219C130.293 124.816 130.293 124.816 130.293 124.891V135.059C130.293 135.133 130.293 135.133 130.219 135.133H128.938V135.285H133.758C136.395 135.359 138.578 132.949 138.578 130.012ZM124.797 135.359V131.746H124.645C124.645 133.254 123.59 135.211 121.332 135.211H120.051C119.977 135.211 119.977 135.211 119.977 135.137V124.969C119.977 124.895 119.977 124.895 120.051 124.895H121.406V124.742H116.512V124.895H117.867C117.941 124.895 117.941 124.895 117.941 124.969V135.137C117.941 135.211 117.941 135.211 117.867 135.211H116.512V135.359H124.797ZM95.4219 124.895V124.742H92.4102V124.895H93.7656C93.8398 124.895 93.8398 124.895 93.8398 124.969V132.273C93.8398 134.156 92.9375 135.359 90.8281 135.359C89.1719 135.359 88.6445 134.23 88.6445 132.422V124.969C88.6445 124.895 88.6445 124.895 88.7188 124.895H90.0742V124.742H85.1797V124.895H86.5352C86.6094 124.895 86.6094 124.895 86.6094 124.969V132.422C86.6094 134.684 88.1914 135.66 90.4531 135.66C92.9375 135.66 94.0664 134.305 94.0664 132.273V124.969C94.0664 124.895 94.0664 124.895 94.1406 124.895H95.4219ZM84.5781 128.355V124.664H75.3125C75.3125 124.664 75.2383 124.664 75.2383 124.742V128.355H75.3906C75.3906 126.625 76.3672 124.816 78.5508 124.816H78.7031C78.7773 124.816 78.7773 124.816 78.7773 124.895V135.059C78.7773 135.137 78.7773 135.137 78.7031 135.137H77.4219V135.285H82.3164V135.137H80.9648C80.8867 135.137 80.8867 135.137 80.8867 135.059V124.895C80.8867 124.816 80.8867 124.816 80.9648 124.816H81.1133C83.2969 124.816 84.3516 126.551 84.3516 128.355C84.3516 128.434 84.5781 128.434 84.5781 128.355ZM74.5625 135.586V131.52H74.4102C74.4102 133.477 72.9023 135.438 71.0977 135.438C70.418 135.438 69.8164 135.285 69.4375 134.836C68.7617 134.082 68.4609 132.574 68.4609 130.016C68.4609 127.453 68.7617 125.871 69.4375 125.191C69.8906 124.742 70.3438 124.59 71.0195 124.59C72.5273 124.59 74.1094 126.551 74.1094 128.055H74.2578V124.516H74.1094C74.1094 124.664 73.8086 124.895 73.3555 124.895C72.6758 124.895 71.6992 124.516 71.0195 124.516C68.1602 124.516 66.125 127.152 66.125 130.09C66.125 133.102 68.2344 135.66 71.0977 135.66C71.9258 135.66 73.0547 135.211 73.7305 135.211C74.1836 135.211 74.4102 135.512 74.4102 135.66C74.4102 135.586 74.5625 135.586 74.5625 135.586ZM65.5234 135.359V131.895H65.3711C65.3711 133.477 64.3164 135.285 61.832 135.285H60.3281C60.25 135.285 60.25 135.285 60.25 135.211V130.016H60.6289C61.832 130.016 62.5859 130.992 62.5859 132.047H62.7344V127.754H62.5859C62.5859 128.809 61.832 129.789 60.6289 129.789H60.25V124.895C60.25 124.816 60.25 124.816 60.3281 124.816H61.7578C63.6406 124.816 64.543 126.473 64.543 127.906H64.6953V124.742C64.6953 124.742 64.6953 124.664 64.6211 124.664H56.7109V124.816H58.0664C58.1406 124.816 58.1406 124.816 58.1406 124.895V135.059C58.1406 135.137 58.1406 135.137 58.0664 135.137H56.7109V135.285L65.5234 135.359ZM55.9609 128.355V124.664H46.6953C46.6953 124.664 46.6172 124.664 46.6172 124.742L46.6211 128.355H46.7695C46.7695 126.625 47.75 124.816 49.9336 124.816H50.0859C50.1602 124.816 50.1602 124.816 50.1602 124.895V135.059C50.1602 135.137 50.1602 135.137 50.0859 135.137H48.8047V135.285H53.6992V135.137H52.418C52.3437 135.137 52.3438 135.137 52.3438 135.059V124.895C52.3438 124.816 52.3437 124.816 52.418 124.816H52.5703C54.7539 124.816 55.8086 126.551 55.8086 128.355C55.8086 128.434 55.957 128.434 55.957 128.355H55.9609ZM46.0156 135.359V135.211H44.6602C44.5859 135.211 44.5859 135.211 44.5859 135.137V124.969C44.5859 124.895 44.5859 124.895 44.6602 124.895H46.0156V124.742H41.1211V124.895H42.4766C42.5508 124.895 42.5508 124.895 42.5508 124.969V135.137C42.5508 135.211 42.5508 135.211 42.4766 135.211H41.1211V135.359H46.0156ZM40.2188 135.359V135.211H38.8633C38.7852 135.211 38.7852 135.211 38.7852 135.137V124.969C38.7852 124.895 38.7852 124.895 38.8633 124.895H40.2188V124.742H35.4727V124.895H36.6797C36.7539 124.895 36.7539 124.895 36.7539 124.969V129.785H33.2891V124.969C33.2891 124.895 33.2891 124.895 33.3633 124.895H34.5703V124.742H29.8242V124.895H31.1055C31.1797 124.895 31.1797 124.895 31.1797 124.969V135.137C31.1797 135.211 31.1797 135.211 31.1055 135.211H29.8242V135.359H34.5703V135.211H33.3633C33.2891 135.211 33.2891 135.211 33.2891 135.137V129.938H36.7539V135.137C36.7539 135.211 36.7539 135.211 36.6797 135.211H35.4727V135.359H40.2188ZM28.6953 135.586V131.52H28.543C28.543 133.477 27.0391 135.438 25.2305 135.438C24.5508 135.438 23.9492 135.285 23.5742 134.836C22.8945 134.082 22.5938 132.574 22.5938 130.016C22.5938 127.453 22.8945 125.871 23.5742 125.191C24.0273 124.742 24.4766 124.59 25.1562 124.59C26.6602 124.59 28.2422 126.551 28.2422 128.055H28.3945V124.516H28.2422C28.2422 124.664 27.9414 124.895 27.4883 124.895C26.8125 124.895 25.832 124.516 25.1562 124.516C22.293 124.516 20.2578 127.152 20.2578 130.09C20.2578 133.102 22.3672 135.66 25.2305 135.66C26.0586 135.66 27.1875 135.211 27.8672 135.211C28.3164 135.211 28.543 135.512 28.543 135.66C28.543 135.586 28.6953 135.586 28.6953 135.586ZM16.5703 127.379C16.5703 129.262 16.2695 129.711 14.8359 129.711H13.9336V124.895C13.9336 124.816 13.9336 124.816 14.0078 124.816H14.6875C16.1172 124.895 16.5703 125.496 16.5703 127.379ZM21.0117 135.137L20.9375 134.984C20.7109 135.211 20.4844 135.359 20.1094 135.359C19.582 135.359 19.2031 134.91 19.2031 134.082V132.727C19.2031 131.219 18.2266 129.785 15.8164 129.785C17.5469 129.785 18.7539 128.656 18.7539 127.301C18.7539 125.797 17.3984 124.664 15.1367 124.664H10.4688V124.816H11.8242C11.8984 124.816 11.8984 124.816 11.8984 124.895V135.059C11.8984 135.137 11.8984 135.137 11.8242 135.137H10.4688V135.285H15.2891V135.137H14.0078C13.9336 135.137 13.9336 135.137 13.9336 135.059V129.863H14.8359C16.1914 129.863 17.0195 130.391 17.0195 131.672V132.648C17.0195 134.836 18.4531 135.59 19.6562 135.59C20.2578 135.66 20.7109 135.437 21.0117 135.137ZM2.71094 131.598L4.29297 127.152L5.80078 131.598H2.71094ZM10.6953 135.359V135.211H9.41406C9.33984 135.211 9.33984 135.211 9.26172 135.137L5.27344 124.441C5.27344 124.363 5.12109 124.363 5.12109 124.441L1.50781 134.531C1.28125 135.137 1.28125 135.137 1.12891 135.137H0V135.285H2.86328C2.9375 135.285 2.9375 135.137 2.86328 135.137H1.58203C1.50781 135.137 1.50781 135.059 1.73047 134.531L2.71094 131.746H5.94922L7.07812 135.137C7.07812 135.137 7.07813 135.211 7.00391 135.211H5.64844C5.57422 135.211 5.57422 135.359 5.64844 135.359H10.6953ZM100.242 129.711H99.3398V124.895C99.3398 124.816 99.3398 124.816 99.4141 124.816H100.094C101.523 124.816 101.977 125.422 101.977 127.301C102.051 129.262 101.75 129.711 100.242 129.711ZM105.516 135.211C104.988 135.211 104.609 134.684 104.609 133.93V132.801C104.609 131.293 103.633 129.863 101.223 129.863C102.953 129.863 104.16 128.734 104.16 127.379C104.16 125.871 102.805 124.742 100.543 124.742H95.875V124.895H97.2305C97.3047 124.895 97.3047 124.895 97.3047 124.969V135.137C97.3047 135.211 97.3047 135.211 97.2305 135.211H95.875V135.359H100.695V135.211H99.4141C99.3398 135.211 99.3398 135.211 99.3398 135.137V129.938H100.242C101.598 129.938 102.426 130.465 102.426 131.746V132.727C102.426 134.91 103.859 135.438 105.062 135.438H105.438V135.211H105.516ZM111.164 131.598H108.074L109.656 127.152L111.164 131.598ZM116.059 135.359V135.211H114.777C114.703 135.211 114.703 135.211 114.629 135.137L110.637 124.441C110.637 124.363 110.484 124.363 110.484 124.441L106.871 134.531C106.645 135.137 106.645 135.137 106.492 135.137H105.664V135.285H108.227C108.301 135.285 108.301 135.137 108.227 135.137H106.945C106.871 135.137 106.871 135.059 107.098 134.531L108.074 131.746H111.312L112.441 135.137C112.441 135.137 112.441 135.211 112.367 135.211H111.012C110.937 135.211 110.937 135.359 111.012 135.359H116.059Z" fill="black"/>
<path fill-rule="evenodd" clip-rule="evenodd" d="M0 118.051H19.2578V117.188H10.3516C11.0664 115.316 23.7148 80.1797 23.7148 80.1797H60.2891C60.2891 80.1797 72.793 114.965 73.5859 117.188H61.6523V118.047H93.5586L51.5156 0.207031L9.41797 117.188H0V118.051ZM23.9297 79.3164L41.9648 29.2344L60.0039 79.3203H23.9297V79.3164Z" fill="black"/>
<path fill-rule="evenodd" clip-rule="evenodd" d="M93.4883 118.051H121.512C153.848 118.051 180 98.9375 180 60.207C180 21.9805 154.992 2.14844 121.148 2.14844H81.5586V3.00781H93.4883V118.051ZM111.953 117.262V3.07422H119.137C127.621 3.07422 134.66 3.58203 139.902 6.09766C154.133 12.8477 159.02 30.3164 159.02 60.207C159.02 88.5938 151.906 105.406 140.266 113.02C134.875 116.398 127.406 117.262 120.789 117.262H111.953Z" fill="black"/>
</svg>
