<svg width="130" height="60" viewBox="0 0 130 60" fill="none" xmlns="http://www.w3.org/2000/svg">
<path d="M94.87 53.03C94.69 52.69 94.42 52.37 94.1 52.16C93.71 51.9 93.32 51.81 92.84 51.81C91.56 51.81 90.63 52.62 90.63 53.83C90.63 54.42 90.83 54.78 91.17 55.11C91.52 55.45 91.92 55.61 92.22 55.76L92.93 56.09C93.34 56.28 93.65 56.42 93.88 56.63C94.16 56.89 94.27 57.19 94.27 57.55C94.27 58.34 93.76 59.1 92.69 59.1C92.29 59.1 91.9 59.01 91.55 58.67C91.33 58.44 91.14 58.08 91.08 57.67L90.23 57.91C90.34 58.38 90.57 58.92 90.96 59.29C91.5 59.82 92.15 59.92 92.67 59.92C94.09 59.92 95.16 58.96 95.16 57.52C95.16 56.96 94.99 56.5 94.59 56.1C94.26 55.77 93.83 55.56 93.37 55.36L92.61 55.03C92.32 54.9 92.02 54.77 91.78 54.54C91.57 54.34 91.48 54.16 91.48 53.86C91.48 53.13 92.02 52.65 92.8 52.65C93.25 52.65 93.53 52.8 93.69 52.92C93.87 53.06 94.04 53.3 94.15 53.51L94.87 53.03ZM89.05 51.94H84.96V59.76H89.05V58.94H85.84V55.9H88.96V55.08H85.84V52.76H89.05V51.94ZM80.6 51.94V59.76H83.65V58.94H81.48V51.94H80.6ZM76.69 59.76V56.39L79.3 51.93H78.28L76.25 55.43L74.24 51.93H73.22L75.81 56.39V59.76H76.69ZM72.4 52.76V51.94H67.7V52.76H69.61V59.76H70.48V52.76H72.4ZM66.48 53.03C66.3 52.69 66.03 52.37 65.71 52.16C65.32 51.9 64.93 51.81 64.44 51.81C63.16 51.81 62.23 52.62 62.23 53.83C62.23 54.42 62.43 54.78 62.77 55.11C63.12 55.45 63.51 55.61 63.82 55.76L64.53 56.09C64.94 56.28 65.25 56.42 65.48 56.63C65.76 56.89 65.87 57.19 65.87 57.55C65.87 58.34 65.36 59.1 64.29 59.1C63.89 59.1 63.5 59.01 63.15 58.67C62.93 58.44 62.74 58.08 62.68 57.67L61.83 57.91C61.94 58.38 62.17 58.92 62.56 59.29C63.1 59.82 63.75 59.92 64.27 59.92C65.69 59.92 66.76 58.96 66.76 57.52C66.76 56.96 66.59 56.5 66.19 56.1C65.86 55.77 65.43 55.56 64.97 55.36L64.21 55.03C63.91 54.9 63.62 54.77 63.38 54.54C63.17 54.34 63.09 54.16 63.09 53.86C63.09 53.13 63.63 52.65 64.41 52.65C64.86 52.65 65.14 52.8 65.3 52.92C65.48 53.06 65.65 53.3 65.76 53.51L66.48 53.03ZM60.66 51.94H56.57V59.76H60.66V58.94H57.45V55.9H60.57V55.08H57.45V52.76H60.66V51.94ZM55.01 51.94H51.42V59.76H52.29V55.89H54.91V55.07H52.29V52.76H55.01V51.94ZM48.31 59.76H49.18V51.93H48.31V59.76ZM43.94 51.94V59.76H46.99V58.94H44.82V51.94H43.94ZM35.69 54.19C35.54 53.98 35.37 53.76 35.37 53.42C35.37 52.93 35.76 52.56 36.25 52.56C36.66 52.56 37.1 52.82 37.1 53.37C37.1 53.64 37.02 53.92 36.57 54.27L36.05 54.67L35.69 54.19ZM37.58 58.03C37.28 58.31 36.4 59.11 35.56 59.11C34.75 59.11 34.17 58.5 34.17 57.73C34.17 57.12 34.5 56.8 34.73 56.6C34.95 56.4 35.26 56.14 35.84 55.79L37.58 58.03ZM39.09 56.37C38.86 56.68 38.62 56.96 38.19 57.4L36.55 55.3C37.06 54.88 36.99 54.97 37.19 54.8C37.82 54.26 37.92 53.74 37.92 53.38C37.92 52.59 37.35 51.81 36.25 51.81C35.11 51.81 34.54 52.64 34.54 53.46C34.54 53.99 34.79 54.46 35.32 55.14C35.15 55.25 34.41 55.7 34 56.11C33.74 56.37 33.29 56.88 33.29 57.73C33.29 58.97 34.28 59.9 35.57 59.9C36.47 59.9 37.43 59.35 38.11 58.67L38.96 59.76H40.05L38.73 58.06C39.21 57.57 39.52 57.19 39.73 56.9L39.09 56.37Z" fill="black"/>
<path d="M128.1 21.8C125.42 19.06 122.31 18.75 120.66 18.75C114.83 18.75 112.23 22.58 112.23 26.42C112.23 29.08 113.45 30.53 114.32 31.27C115.66 32.44 117.31 33.07 118.69 33.54C120.19 34.05 121.76 34.56 122.75 35.46C123.46 36.13 123.77 36.87 123.77 37.81C123.77 40 122.04 41.41 119.71 41.41C117.86 41.41 115.46 40.47 114.2 37.93L110.85 41.1C112.23 43.1 115.07 46.03 119.91 46.03C125.34 46.03 129.05 42.55 129.05 37.46C129.05 34.8 127.99 33.04 126.8 31.98C125.46 30.77 123.53 30.06 121.48 29.36C119.83 28.77 118.96 28.46 118.33 27.87C117.7 27.32 117.5 26.73 117.5 26.11C117.5 24.78 118.37 23.06 121.12 23.06C122.07 23.06 123.88 23.26 125.41 25.29L128.1 21.8ZM107.72 19.33H93.15V45.42H107.72V41.04H98.27V33.92H107.33V29.54H98.27V23.71H107.72V19.33ZM57.67 45.42H62.87L65.55 29.34L72.29 45.42H74.02L81.07 29.34L83.43 45.42H88.63L84.22 19.33H80.52L73.23 35.91L66.26 19.33H62.56L57.67 45.42ZM40.93 41.39C35.81 41.39 32.19 37.67 32.19 32.39C32.19 27.11 35.81 23.35 40.93 23.35C46.05 23.35 49.67 27.1 49.67 32.39C49.67 37.68 46.05 41.39 40.93 41.39ZM40.93 18.75C32.66 18.75 26.91 24.46 26.91 32.4C26.91 40.34 32.66 46.01 40.93 46.01C49.2 46.01 54.95 40.34 54.95 32.4C54.95 24.46 49.2 18.75 40.93 18.75ZM5.98999 19.33H0.869995V45.42H5.98999V33.8H17.1V45.42H22.22V19.33H17.1V29.42H5.98999V19.33Z" fill="black"/>
<path d="M107.87 12.55C105.05 12.55 103.04 10.52 103.04 7.62C103.04 4.73 105.05 2.69 107.87 2.69C110.69 2.69 112.7 4.72 112.7 7.62C112.7 10.52 110.69 12.55 107.87 12.55ZM107.87 0.850006C103.93 0.850006 101.04 3.77999 101.04 7.60999C101.04 11.44 103.93 14.38 107.87 14.38C111.81 14.38 114.7 11.45 114.7 7.60999C114.7 3.78999 111.81 0.850006 107.87 0.850006ZM91.02 2.95999H91.89C92.86 2.95999 94.25 3.03999 95.4 3.85999C96.35 4.53999 97.17 5.89 97.17 7.62C97.17 9.4 96.28 10.65 95.38 11.34C94.24 12.18 92.88 12.26 91.89 12.26H91.02V2.95999ZM89.01 1.09V14.13H91.73C93.56 14.13 95 13.95 96.54 12.88C98.27 11.67 99.18 9.79 99.18 7.62C99.18 5.45 98.26 3.54999 96.66 2.35999C95.2 1.28999 93.61 1.09 91.77 1.09H89.01ZM78.94 9.10999L80.97 4.69L82.92 9.10999H78.94ZM85.11 14.13H87.27L81.05 0.329987L74.51 14.13H76.67L78.11 10.98H83.73L85.11 14.13ZM66.82 2.92001H67.51C68.5 2.92001 70.25 3.1 70.25 4.94C70.25 7.01 68 7.07001 67.45 7.07001H66.82V2.92001ZM64.82 1.09V14.13H66.83V8.79001H67.19L70.95 14.13H73.37L69.28 8.56C71.03 8.17 72.19 6.80001 72.19 4.92001C72.19 4.35001 72.07 2.81001 70.64 1.85001C69.79 1.28001 68.77 1.09 67.17 1.09H64.82ZM55.42 12.55C52.6 12.55 50.59 10.52 50.59 7.62C50.59 4.73 52.6 2.69 55.42 2.69C58.24 2.69 60.25 4.72 60.25 7.62C60.25 10.52 58.24 12.55 55.42 12.55ZM55.42 0.850006C51.48 0.850006 48.59 3.77999 48.59 7.60999C48.59 11.44 51.48 14.38 55.42 14.38C59.36 14.38 62.25 11.45 62.25 7.60999C62.25 3.78999 59.36 0.850006 55.42 0.850006ZM41.96 1.09V14.13H47.83V12.26H43.97V1.09H41.96ZM32.57 12.55C29.75 12.55 27.74 10.52 27.74 7.62C27.74 4.73 29.75 2.69 32.57 2.69C35.39 2.69 37.4 4.72 37.4 7.62C37.39 10.52 35.38 12.55 32.57 12.55ZM32.57 0.850006C28.63 0.850006 25.74 3.77999 25.74 7.60999C25.74 11.44 28.63 14.38 32.57 14.38C36.51 14.38 39.4 11.45 39.4 7.60999C39.4 3.78999 36.51 0.850006 32.57 0.850006ZM24.07 1.79001C22.93 1.07001 21.77 0.850006 20.56 0.850006C18.75 0.850006 17.17 1.27999 15.81 2.54999C14.71 3.58999 13.7 5.25 13.7 7.66C13.7 9.5 14.27 11.16 15.81 12.59C16.58 13.31 18.08 14.39 20.46 14.39C21.37 14.39 22.74 14.2 24.06 13.41V11.04C23.31 11.74 22.09 12.55 20.51 12.55C17.71 12.55 15.7 10.42 15.7 7.66C15.7 4.79 17.63 2.69 20.49 2.69C21.24 2.69 22.6 2.83001 24.05 4.14001V1.79001H24.07Z" fill="black"/>
</svg>
