<svg fill="none" height="65" viewBox="0 0 90 65" width="90" xmlns="http://www.w3.org/2000/svg"><path d="m16.71 13.16c.35.03.54.05.73.05h5.87c.76 0 .79-.03.79-.83 0-2.92 0-5.84002-.01-8.77002 0-.2-.09-.41-.14-.62-.17.13-.39.23003-.51.40003-2.12 3.01-4.23 6.03999-6.33 9.05999-.12.19-.21.38-.4.71zm24.13 26.55c0 1.71.01 3.42 0 5.13 0 .43.06.79.59.77 1.67-.04 3.26-.31 4.7-1.34 2.72-1.96 3.15-5.79.91-8.31-1.49-1.68-3.38-2.22-5.49-2.17-.54.01-.71.25-.71.79.01 1.71 0 3.42 0 5.13zm-22.75-5.62c-.02-.09-.04-.19-.06-.28-.49 0-.98 0-1.47 0-4.69.02-9.38999.04-14.07999.04-.47 0-.60001.23-.60001.68.01 3.38.02 6.76 0 10.14 0 .59.22999.73.72999.72 2.1-.02 4.19-.04 6.29 0 .67.01.89-.27 1.06-.9 1.20001-4.44 3.75001-7.74 7.54001-9.99.2-.11.39-.27.59-.41zm55.2-10.94c.06.51.08 1.03.18 1.53 1.23 6.03 7.58 8.56 12.18 4.87.4-.32.47-.6.24-1.09-.42-.88-.77-1.8-1.14-2.7-1.41-3.39-2.83-6.78-4.24-10.17-.17-.4-.41-.48-.79-.41-3.67.67-6.35 4.01-6.43 7.97zm-59.49 9.1v-.03c3.2 0 6.4-.01 9.61.01.49 0 .71-.15.71-.7-.01-5.34-.01-10.68-.01-16.02 0-.48-.18-.65-.62-.65-2.49.01-4.97-.01-7.46.02-.29.01-.67.22-.86.47-.68.88-1.29 1.8-1.93 2.71-3.12 4.47-6.23999 8.94-9.34999 13.42-.12.17-.15001.4-.23001.6.19.06.37999.16.57999.16 3.19.01 6.38001.01 9.56001.01zm9.82 31.08c4.45.03 7.21-.83 9.63-2.7 4.54-3.5 6.63-8.24 5.81-14.15-.95-6.91-6.68-12.16-13.27-12.39-4.21-.15-7.88 1.28-10.9 4.48-3.87 4.09-5.14999 10.51-2.88 15.75 2.54 5.86 6.99 8.81 11.61 9.01zm15.48-7.17c-.14.18-.3.35-.42.54-2.51 4.4-6.15 7.1-10.91 8.01-4.26.82-8.21-.14-11.75-2.77-3.36-2.5-5.51-5.92-6.33-10.2-.25-1.32-.22-2.7-.25-4.05-.01-.51-.12999-.68-.61999-.68-2.06.02-4.12002.01-6.17002.02-.74 0-.75998.02-.75998.79v15.77c0 .8-.09002.89-.84002.88-.630002-.01-.709994-.11-.709994-.89-.01-20.87-.009998-41.73-.029998-62.599997 0-.61.21-.790009.750002-.790009 3.61.01 7.22999.00999 10.84-.01001 3.18-.01 6.36-.050007 9.53-.070007.23 0 .47.060006.73.100006-.43 1.179997-.89 1.540007-1.91 1.540007-5.88.01-11.76999.00999-17.64999.01999-.72 0-.81002.08002-.80002.86002.02 1.99.06001 3.97998.07001 5.97998 0 1.37-.02001 2.74002-.07001 4.11002-.02.63.32.64.75.64 3.24-.01 6.49001-.01 9.73001-.02h.63c.04.73-.77 1.65-1.41 1.65-2.95 0-5.89999 0-8.85999 0-.8 0-.79002.07-.78002.93.03 1.58-.02 3.17-.03 4.76 0 .41.06002.82.06002 1.23.01 2.64.01 5.28 0 7.92 0 .24-.07001.49-.05001.73.02.21.11999.41.17999.61.17-.1.39-.16.5-.32.76-1.07 1.49002-2.15 2.24002-3.23 2.82-4.05 5.64999-8.09 8.46999-12.14 2.31-3.32 4.6-6.66002 6.9-9.99002 1.13-1.64 2.28-3.26999 3.42-4.899992.32-.45 1.44-.769982 1.83-.449982.18.15.26.539977.26.819977.02 4.629997.02 9.270017.02 13.900017v16.76c0 .87.07.92.88.99 3.33.26 6.24 1.62 8.8 3.88 1.39 1.22 2.53 2.66 3.42 4.32.08.14.29.21.45.31.05-.17.14-.33.14-.5-.01-1.38-.06-2.75-.07-4.13-.01-1.33.04-2.66.05-3.99.01-2.78.02-5.56.02-8.34 0-4.98 0-9.96-.01-14.94001 0-1.4-.06-2.80001-.06-4.20001 0-.9.03-1.79998.07-2.69998.02-.48-.13-.71002-.63-.71002-2.21.02-4.43.03002-6.64.02002-.51 0-.68.23-.68.75.01 2.35 0 4.69998.01 7.04998.01 1.68002.06 3.36002.07 5.04002.01 5.69.01 11.37 0 17.06 0 .25-.12.67-.27.72-.33.1-.74.1-1.07-.02-.13-.05-.19-.5-.19-.77-.01-4.7-.01-9.4-.01-14.1 0-5.48 0-10.97-.02-16.450005 0-.6.13-.8300167.74-.8300167 6.07-.01 12.14-.0499866 18.21-.07998661.81 0 .82.01998541.82.85998531v11.630023c0 .78.08.86.79.86 4.72 0 9.43-.01 14.15-.02h2.14c.52 0 .63-.2.63-.77-.01-2.80001.01-5.58999.01-8.38999 0-1.09-.05-2.18002-.06-3.270024-.01-.73.19-.9099943.87-.89999431.46.01.67.23000131.66.72000131-.01 1.029997 0 2.059997 0 3.089997.01 9.18001.01 18.35001.01 27.53001 0 .76-.15.93-.82.94-.44.01-.66-.15-.66-.69.02-4.66.01-9.32.01-13.98 0-.64-.02-1.27.01-1.91.02-.57-.17-.82-.74-.82-3.47.04-6.94.08-10.42.09-1.47.01-2.95-.04-4.42-.06-.52-.01-1.04-.01-1.56.01-.42.01-.62.21-.62.69.04 5.25.06 10.5.09 15.75 0 .79-.05.85-.79.85-.71 0-.75-.05-.75-.89 0-9.53 0-19.05-.01-28.58002 0-1.19 0-1.15-1.12-1.13-1.84.04-3.68.01002-5.52.02002-.76 0-.78.03-.78.85 0 8.23.01 16.46.01 24.68 0 1.46.01 2.92.01 4.38 0 .51.2.76.71.73 1.59-.08 3.12.18 4.55.99 1.92 1.08 3.24 2.7 3.77 4.92s-.06 4.24-1.43 5.98c-1.28 1.62-2.95 2.56-4.91 2.92-.52.09-.6.28-.28.71 3.4 4.66 6.81 9.33 10.22 13.98.2.27.49.48.73.72.15-.32.34-.62.43-.95 1.03-3.93 2.03-7.87 3.06-11.8.86-3.28 1.74-6.55 2.6-9.82.61-2.33 1.22-4.66 1.8-7 .13-.54.38-.78.89-.74.15.01.31 0 .47.01.82.01.92.1 1.13.92.73 2.83 1.48 5.65 2.2 8.48.85 3.34 1.67 6.7 2.52 10.04.72 2.81 1.47 5.61 2.2 8.41.07.28.12.56.22.83.06.15.18.28.28.41.12-.14.3-.26.34-.42.35-1.26.66-2.53 1-3.79.61-2.29 1.22-4.57 1.83-6.86.77-2.88 1.54-5.76 2.32-8.63.72-2.66 1.43-5.32 2.16-7.98.15-.56.05-.73-.54-.89-3.63-1.02-6.06-3.38-7.02-7.27-.97-3.97.85-8.43 4.2-10.49.69-.42.69-.49.03-.96-2.08-1.51-3.21-3.6-3.23-6.28002-.03-3.59 2.76-6.799987 6.12-7.239987 1.82-.23 3.44.229986 4.93 1.329987.4.29.56.64001.52 1.14001-.03.42-.01.84002-.01 1.45002-.49-.47-.81-.84003-1.18-1.15003-1.81-1.5-3.83-1.66999-5.83-.64999-1.93.99-2.97 2.73999-3.02 5.08999-.07 3.24002 2.51 6.02002 5.56 5.83002 1.09-.07 1.08-.01 1.52 1.03 1.7 4.05 3.4 8.1 5.11 12.15.32.75.6 1.52.95 2.25.2.4.07.64-.18.91-1.32 1.47-2.92 2.41-4.79 2.85-.64.15-.72.31-.55.99 1.01 3.89 2.02 7.79 3.02 11.68.62 2.41 1.21 4.83 1.83 7.24.79 3.12 1.59 6.25 2.39 9.37.15.59.3 1.19.44 1.79.03.12.03.3-.03.39-.28.38-1.42.15-1.54-.32-.32-1.18-.62-2.37-.92-3.56-.26-1.03-.49-2.07-.76-3.09-.83-3.24-1.67-6.49-2.5-9.73-.89-3.48-1.78-6.97-2.67-10.45-.15-.58-.3-1.16-.44-1.73-.07 0-.14 0-.21 0-.09.16-.21.31-.26.49-.99 3.81-1.96 7.63-2.96 11.44-.73 2.78-1.51 5.55-2.25 8.33-.71 2.68-1.42 5.36-2.11 8.05-.15.58-.43.81-.99.79-1.42-.04-1.28.14-1.65-1.3-.88-3.5-1.74-7.02-2.64-10.52-.7-2.75-1.45-5.49-2.16-8.24-.6-2.35-1.18-4.71-1.77-7.07-.15-.61-.3-1.23-.48-1.83-.04-.15-.21-.26-.32-.38-.1.13-.25.25-.29.4-1.08 4.09-2.14 8.18-3.21 12.26-1.24 4.74-2.48 9.48-3.72 14.22-.15.57-.31 1.15-.42 1.73-.11.57-.38.82-.93.75-.21-.03-.43-.02-.64 0-.4.03-.67-.13-.93-.48-3.21-4.41-6.43-8.81-9.64-13.21-.63-.86-1.23-1.74-1.87-2.59-.14-.19-.38-.29-.58-.43-.05.26-.13.53-.16.79-.02.2.04.41.04.61v14.41c0 .82-.53 1.23-1.24.88-.17-.08-.3-.45-.3-.69-.02-2.25-.01-4.5-.01-6.74 0-.23-.04-.46-.06-.7-.04-.05-.1-.07-.17-.09z" fill="#000"/></svg>