<svg height="19" viewBox="0 0 154 19" width="154" xmlns="http://www.w3.org/2000/svg"><path clip-rule="evenodd" d="m19.9026 18.5016 1.133-6.4561h-4.8741l-1.133 6.4561h-5.62232l3.01422-17.25181h5.6224l-1.1117 6.17815h4.8741l1.1117-6.17815h5.6223l-3.0143 17.25181zm11.8219-17.27319v-.02138h5.6223l-1.6247 8.93587c-.171.8765-.2565 1.5819-.2565 2.1591 0 1.4965.6627 2.2233 2.0308 2.2233 2.095 0 2.4585-1.475 2.9715-4.2969l1.6034-9.02137h5.6223l-1.8812 10.75297c-.8765 5.0238-3.2922 6.8836-8.8932 6.8836-2.6722 0-7.1187-.7696-7.1187-5.8575 0-.6841.0641-1.4109.2138-2.1591zm45.6841 17.27319 3.0142-17.27319h7.1829c4.1259 0 6.4774 1.94537 6.4774 5.34442 0 4.83137-2.7149 7.48217-7.6104 7.48217h-2.6508l-.791 4.4466zm8.7648-8.70074c1.5819 0 2.5439-.87649 2.5439-2.30879 0-1.13302-.6627-1.75297-1.9026-1.75297h-1.5178l-.7482 4.06176zm18.8336-8.93587c4.896 0 7.803 2.75772 7.782 7.39667 0 6.64844-3.656 10.60334-9.77 10.60334-4.8741 0-7.7815-2.7791-7.7815-7.3967 0-6.64844 3.6556-10.60331 9.7695-10.60331zm-1.646 13.53211c2.287 0 3.014-2.0951 3.442-4.3397.128-.66272.192-1.23992.192-1.90262 0-1.75297-.855-2.80048-2.309-2.80048-2.287 0-3.014 2.07364-3.441 4.33967-.129.66273-.193 1.23993-.193 1.90263 0 1.753.855 2.8005 2.309 2.8005zm28.988 4.1045 2.181-12.63423h-4.49l.813-4.61758h14.387l-.812 4.61758h-4.233l-2.224 12.63423zm-9.32-10.88127c3.014.91924 4.489 2.62947 4.467 5.23757 0 5.2161-4.831 5.9857-7.717 5.9857-3.784 0-6.199-1.4537-6.734-4.019l4.896-1.3254c.32.8979 1.261 1.4109 2.137 1.4109.962 0 1.518-.4703 1.518-1.2185 0-.9406-.983-1.1972-1.838-1.4323-3.25-.8979-4.746-2.62946-4.746-5.45132 0-1.38955.534-5.94299 7.332-5.94299 3.613 0 5.708 1.23991 6.285 3.67696l-4.959 1.34679c-.257-.6627-.919-1.11164-1.71-1.11164-1.069 0-1.433.66271-1.433 1.21853 0 .83373.727 1.06889 2.502 1.6247zm-116.76534 10.88127h-6.26366v-17.25181h9.29929zm141.39234-17.25181h6.285v17.25181h-9.3zm-93.2498 12.16391-.8979 5.0879h-5.6223l3.0142-17.27319h12.2281l-.8124 4.63896h-6.6057l-.5344 3.20665h4.7244l-.7696 4.33968zm14.7292 0-.8765 5.0879h-5.6223l3.0142-17.27319h12.2281l-.8124 4.63896h-6.6057l-.5344 3.20665h4.7244l-.7696 4.33968z" fill-rule="evenodd"/></svg>