<svg width="135" height="49" viewBox="0 0 135 49" fill="none" xmlns="http://www.w3.org/2000/svg">
<path fill-rule="evenodd" clip-rule="evenodd" d="M20.7883 18.1704C18.9952 20.6039 16.4337 22.3969 12.6555 22.3969C6.50793 22.3969 1.6731 17.9143 1.6731 11.3505C1.6731 4.78662 6.50793 0.303955 12.6555 0.303955C16.4337 0.303955 19.0593 2.12903 20.7562 4.53052L18.5149 5.77917C17.2982 3.98621 15.0889 2.67334 12.6555 2.67334C7.9808 2.67334 4.42673 6.25952 4.42673 11.3505C4.42673 16.4094 7.9808 20.0275 12.6555 20.0275C15.0889 20.0275 17.2982 18.7468 18.5149 16.9218L20.7883 18.1704ZM42.618 0.65625V22.0127H39.9604V12.215H27.4732V22.0127H24.8156V0.65625H27.4732V9.84558H39.9604V0.65625H42.618ZM66.5332 22.0127L57.9202 0.65625H54.6222L46.0412 22.0127H49.083L50.9721 17.2739H61.6023L63.4914 22.0127H66.5332ZM60.8019 14.9045H51.7406L56.2872 3.40979L60.8019 14.9045ZM85.879 16.2493C85.879 19.6753 83.6056 22.0127 79.6994 22.0127H69.9657V0.65625H79.4752C83.1894 0.65625 85.4627 2.89758 85.4627 6.09937C85.4627 8.78894 83.6697 10.582 81.7165 10.9983C83.9899 11.3505 85.879 13.6877 85.879 16.2493ZM72.6232 9.90967H79.027C81.4284 9.90967 82.7091 8.43677 82.7091 6.48364C82.7091 4.5625 81.4284 3.02563 79.027 3.02563H72.6232V9.90967ZM72.6232 19.6433H79.1551C81.6525 19.6433 83.1254 18.2345 83.1254 15.9611C83.1254 14.0081 81.7806 12.2791 79.1551 12.2791H72.6232V19.6433ZM100.476 22.3969C106.784 22.3969 111.075 17.6581 111.075 11.3505C111.075 5.04272 106.784 0.303955 100.476 0.303955C94.1368 0.303955 89.8783 5.04272 89.8783 11.3505C89.8783 17.6581 94.1368 22.3969 100.476 22.3969ZM100.476 20.0275C95.6737 20.0275 92.6319 16.3134 92.6319 11.3505C92.6319 6.35559 95.6737 2.67334 100.476 2.67334C105.247 2.67334 108.321 6.35559 108.321 11.3505C108.321 16.3134 105.247 20.0275 100.476 20.0275ZM133.541 0.65625V22.0127H130.979L118.524 4.97876V22.0127H115.866V0.65625H118.588L130.883 17.338V0.65625H133.541ZM15.5191 48.0279L9.32846 32.6779H6.95807L0.790466 48.0279H2.97675L4.33453 44.6219H11.975L13.3328 48.0279H15.5191ZM11.3997 42.9189H4.88687L8.15475 34.6571L11.3997 42.9189ZM24.522 41.7682L28.6644 48.0279H26.4091L22.4968 41.9293H19.436V48.0279H17.5259V32.6779H23.6935C26.5011 32.6779 28.5033 34.4729 28.5033 37.3036C28.5033 40.0652 26.6162 41.5841 24.522 41.7682ZM19.436 40.2493H23.4634C25.2814 40.2493 26.5241 39.0295 26.5241 37.3036C26.5241 35.5776 25.2814 34.3809 23.4634 34.3809H19.436V40.2493ZM38.7995 48.304C41.5151 48.304 43.3561 47.0153 44.6449 45.2662L43.0109 44.3687C42.1364 45.6805 40.5485 46.601 38.7995 46.601C35.4395 46.601 32.885 44.0005 32.885 40.3644C32.885 36.7053 35.4395 34.1277 38.7995 34.1277C40.5485 34.1277 42.1364 35.0713 43.0109 36.36L44.6219 35.4625C43.4022 33.7365 41.5151 32.4248 38.7995 32.4248C34.3809 32.4248 30.9059 35.6466 30.9059 40.3644C30.9059 45.0822 34.3809 48.304 38.7995 48.304ZM59.8747 32.6779V48.0279H57.9646V40.9857H48.9894V48.0279H47.0793V32.6779H48.9894V39.2828H57.9646V32.6779H59.8747ZM65.373 48.0279V32.6779H63.4629V48.0279H65.373ZM74.6763 34.3809V48.0279H72.7662V34.3809H67.9104V32.6779H79.5552V34.3809H74.6763ZM92.1507 48.0279V46.3249H84.004V41.0317H91.9896V39.3289H84.004V34.3809H92.1507V32.6779H82.0938V48.0279H92.1507ZM108.314 45.2662C107.025 47.0153 105.184 48.304 102.468 48.304C98.0499 48.304 94.5748 45.0822 94.5748 40.3644C94.5748 35.6466 98.0499 32.4248 102.468 32.4248C105.184 32.4248 107.071 33.7365 108.291 35.4625L106.68 36.36C105.805 35.0713 104.217 34.1277 102.468 34.1277C99.1085 34.1277 96.554 36.7053 96.554 40.3644C96.554 44.0005 99.1085 46.601 102.468 46.601C104.217 46.601 105.805 45.6805 106.68 44.3687L108.314 45.2662ZM116.456 48.0279V34.3809H121.334V32.6779H109.69V34.3809H114.545V48.0279H116.456ZM134.438 43.7935C134.438 46.0257 132.919 48.304 128.777 48.304C126.107 48.304 124.151 47.2914 122.885 45.8646L124.013 44.4147C125.025 45.5424 126.682 46.601 128.846 46.601C131.584 46.601 132.459 45.1282 132.459 43.9545C132.459 42.1356 130.54 41.6141 128.465 41.0504C126.024 40.3873 123.368 39.6656 123.368 36.7053C123.368 34.1738 125.624 32.4478 128.638 32.4478C130.986 32.4478 132.804 33.2302 134.093 34.588L132.942 35.9918C131.791 34.7261 130.18 34.1508 128.5 34.1508C126.659 34.1508 125.348 35.1403 125.348 36.5902C125.348 38.0986 127.084 38.5701 129.038 39.1008C131.557 39.7847 134.438 40.5671 134.438 43.7935Z" fill="black"/>
</svg>
