<svg width="121" height="112" viewBox="0 0 121 112" fill="none" xmlns="http://www.w3.org/2000/svg">
<path fill-rule="evenodd" clip-rule="evenodd" d="M31.43 8.17C31.01 8.74001 30.54 9.31999 30.08 9.87C30.74 9.59 31.42 9.35999 32.13 9.17999C33.73 8.76999 35.31 8.28 36.86 7.72C38.49 7.14 40.07 6.46001 41.62 5.71001C43.2034 4.94826 44.7502 4.0766 46.2917 3.20795C46.5513 3.06171 46.8106 2.91554 47.07 2.77C48.48 1.96001 49.96 1.25999 51.52 0.720001C49.85 0.75 48.18 0.779999 46.52 0.830002C44.33 0.910004 42.13 1.23 40.07 1.97C38.3 2.58 36.64 3.43999 35.14 4.53999C33.72 5.56999 32.48 6.78999 31.43 8.17ZM34.27 6.99001C33.8 7.29001 33.35 7.61 32.9 7.94C33.0471 7.86348 33.1926 7.78696 33.337 7.71094C33.6834 7.52869 34.0242 7.34937 34.37 7.17999L34.3747 7.17761C34.8631 6.92841 35.3516 6.67917 35.85 6.42C36.5 6.08 37.17 5.75 37.84 5.42C38.51 5.09999 39.18 4.78001 39.86 4.46001C39.9937 4.40079 40.1271 4.34157 40.2603 4.28241C40.8244 4.03192 41.3857 3.78268 41.96 3.53999C42.67 3.23999 43.4 2.94 44.15 2.66C44.448 2.55054 44.746 2.44476 45.0462 2.3382C45.2397 2.26953 45.4341 2.20053 45.63 2.13C45.12 2.27 44.61 2.42 44.12 2.56C43.36 2.78 42.59 3.01999 41.85 3.28999C41.15 3.53999 40.42 3.82001 39.72 4.11C39.02 4.39999 38.33 4.72 37.66 5.05C36.99 5.38 36.33 5.73 35.68 6.11C35.21 6.39 34.73 6.68001 34.27 6.99001Z" fill="black"/>
<path fill-rule="evenodd" clip-rule="evenodd" d="M60.82 104.92C60.8152 104.915 60.8097 104.91 60.8041 104.905C60.7867 104.89 60.7676 104.873 60.76 104.85C60.41 104.47 60.09 104.08 59.83 103.63C59 102.29 57.95 101.11 56.78 100.04C55.5 98.86 54.07 97.84 52.59 96.92C51.1156 95.9888 49.5629 95.1961 48.016 94.4063L48.0124 94.4045C47.5671 94.1772 47.1223 93.9501 46.68 93.72C45.86 93.3 45.08 92.85 44.33 92.35C43.27 91.65 42.26 90.88 41.36 90C41.48 91.94 42.14 93.82 43.03 95.52C44.86 99.13 47.92 102.02 51.58 103.61C52.48 104 53.45 104.28 54.42 104.5C53.43 104.46 52.43 104.43 51.42 104.47C47.18 104.6 42.92 105.21 38.75 106.04C36.59 106.44 34.4 106.86 32.34 107.62L33.0445 107.843C34.5154 108.308 35.9766 108.77 37.46 109.21C38.68 109.57 39.9 109.91 41.12 110.22C44.03 110.95 47.06 111.37 50.05 111.08C52.14 110.89 54.2 110.37 56.05 109.39C57.5 108.62 58.83 107.54 59.8 106.17C60.09 105.74 60.41 105.34 60.78 104.96C60.7738 104.954 60.7829 104.948 60.7955 104.939C60.7984 104.937 60.8016 104.935 60.8047 104.933C60.81 104.929 60.8153 104.925 60.82 104.92ZM57.23 104.52C56.28 103.68 55.32 102.85 54.33 102.05C53.33 101.25 52.31 100.48 51.27 99.73C50.6415 99.2729 50.013 98.8289 49.3846 98.3849C49.1825 98.2422 48.9804 98.0994 48.7783 97.9562C48.5089 97.7652 48.2394 97.5735 47.97 97.38C46.81 96.55 45.67 95.7 44.54 94.8C45.48 95.81 46.45 96.76 47.5 97.63C48.51 98.47 49.56 99.27 50.62 100.04C51.67 100.8 52.73 101.55 53.8 102.28C54.93 103.05 56.07 103.8 57.23 104.52ZM53.66 107.23C54.88 106.76 56.06 106.15 57.16 105.43C55.85 105.99 54.53 106.47 53.16 106.83C51.79 107.22 50.4 107.51 48.99 107.71C47.5 107.93 45.97 108.04 44.45 108.08C42.79 108.14 41.14 108.14 39.49 108.08C41.25 108.36 43.03 108.54 44.81 108.58C46.39 108.62 47.99 108.54 49.56 108.3C50.96 108.09 52.34 107.74 53.66 107.23Z" fill="black"/>
<path fill-rule="evenodd" clip-rule="evenodd" d="M42.47 101.63C42.4633 101.59 42.4478 101.559 42.4322 101.528C42.4244 101.512 42.4167 101.497 42.41 101.48C42.28 101.06 42.15 100.62 42.07 100.17C41.98 99.7 41.89 99.25 41.76 98.8C41.45 97.82 41.05 96.85 40.59 95.93C39.81 94.41 38.86 93.01 37.81 91.68C36.7837 90.3496 35.6418 89.1232 34.4986 87.8954C34.2871 87.6684 34.0753 87.4409 33.8644 87.213C33.7159 87.0525 33.5677 86.8915 33.42 86.73C32.42 85.66 31.49 84.51 30.7 83.27C30.33 82.73 30 82.15 29.71 81.57C29.44 82.59 29.33 83.64 29.33 84.69C29.32 89.46 31.41 94.15 34.82 97.41C35.47 98.02 36.19 98.57 36.92 99.06L36.8104 99.0132C36.0277 98.6789 35.2516 98.3475 34.43 98.08C29.66 96.43 24.64 95.34 19.65 94.72C18.47 94.58 17.27 94.46 16.09 94.48C16.2221 94.5796 16.3546 94.6791 16.4872 94.7787L16.8205 95.0287L16.8239 95.0312C17.3122 95.3974 17.8005 95.7637 18.28 96.13C19.89 97.34 21.51 98.55 23.18 99.69C25.59 101.33 28.17 102.74 30.96 103.51C32.87 104.04 34.87 104.28 36.85 104.04C37.94 103.91 39 103.62 39.98 103.15C40.41 102.94 40.8 102.7 41.17 102.43C41.55 102.16 41.93 101.93 42.32 101.72C42.37 101.68 42.42 101.65 42.47 101.63ZM39.57 99.91C39.01 98.84 38.41 97.76 37.79 96.72C37.16 95.65 36.49 94.61 35.79 93.58C35.03 92.48 34.29 91.41 33.52 90.34L33.5193 90.3391C32.7196 89.1794 31.9198 88.0197 31.17 86.82C31.72 88.05 32.33 89.24 33.01 90.39C33.6424 91.4535 34.3206 92.4803 34.992 93.4968L35.08 93.63C35.79 94.68 36.51 95.71 37.24 96.74C38 97.8 38.78 98.87 39.57 99.91ZM35.55 101.1C36.78 101.09 38.01 100.96 39.22 100.69C37.89 100.75 36.55 100.71 35.22 100.59C33.86 100.47 32.51 100.25 31.18 99.94C29.75 99.62 28.36 99.2 26.96 98.72C25.45 98.2 23.94 97.63 22.46 97.02C23.96 97.87 25.53 98.64 27.13 99.29C28.55 99.86 30.01 100.35 31.51 100.67C32.84 100.95 34.2 101.1 35.55 101.1Z" fill="black"/>
<path fill-rule="evenodd" clip-rule="evenodd" d="M27.13 92.2C27.12 92.14 27.12 92.09 27.12 92.03C27.12 91.6 27.14 91.17 27.21 90.75C27.42 89.46 27.39 88.14 27.26 86.83C27.2549 86.7684 27.2498 86.7068 27.2419 86.6439C27.2345 86.5842 27.2246 86.5233 27.21 86.46C26.99 84.85 26.58 83.28 26.03 81.76C25.4642 80.0953 24.737 78.5046 24.0082 76.9106C23.8483 76.5609 23.6884 76.2109 23.53 75.86C22.68 73.98 22.01 72.01 21.68 69.96C18.3 75.21 19.2 82.81 22.72 87.79C22.73 87.81 22.74 87.82 22.76 87.84C22.755 87.835 22.745 87.8275 22.735 87.82C22.725 87.8125 22.715 87.805 22.71 87.8C17.86 83.48 11.59 79.34 5.44 77.26C5.67349 77.598 5.9068 77.9366 6.14026 78.2753L6.1463 78.2841L6.14813 78.2867C7.5217 80.2801 8.90079 82.2814 10.36 84.21C12.03 86.43 13.93 88.53 16.23 90.1C17.79 91.18 19.52 92.05 21.35 92.47C21.4213 92.481 21.4956 92.4949 21.5679 92.5103C21.6275 92.5229 21.6858 92.5364 21.74 92.55C23.07 92.79 24.45 92.79 25.74 92.45C26.16 92.35 26.58 92.26 27 92.21C27.0131 92.21 27.03 92.2081 27.049 92.206C27.0736 92.2032 27.1018 92.2 27.13 92.2ZM24.995 89.44C24.9825 89.3575 24.97 89.275 24.96 89.19C24.81 88.2 24.64 87.23 24.44 86.26C24.21 85.1 23.91 83.95 23.6 82.8C23.27 81.58 22.91 80.37 22.53 79.15C22.15 77.85 21.79 76.53 21.44 75.21C21.59 76.49 21.78 77.78 22.05 79.04C22.31 80.25 22.62 81.44 22.95 82.64C23.27 83.8 23.59 84.95 23.94 86.11C24.2113 87.0597 24.5072 88.0094 24.8055 88.9666L24.8063 88.9691L24.9 89.27C24.9285 89.3625 24.962 89.4651 24.9933 89.567C25.0061 89.6084 25.0185 89.6496 25.03 89.69C25.02 89.605 25.0075 89.5225 24.995 89.44ZM24.245 90.23C24.325 90.245 24.405 90.26 24.49 90.27C24.34 90.22 24.2 90.17 24.08 90.12C22.99 89.78 21.95 89.35 20.93 88.88C19.73 88.34 18.6 87.71 17.49 87.01C16.29 86.26 15.16 85.44 14.05 84.58C12.82 83.61 11.63 82.63 10.45 81.61C11.58 82.85 12.77 84.03 14.02 85.13C15.13 86.11 16.3 87 17.57 87.77C18.67 88.44 19.84 89.02 21.06 89.45C22.01 89.78 23 90.04 24 90.19C24.085 90.2 24.165 90.215 24.245 90.23Z" fill="black"/>
<path fill-rule="evenodd" clip-rule="evenodd" d="M15.91 78.36C15.92 78.3 15.95 78.26 15.96 78.21C16.09 77.82 16.24 77.46 16.43 77.09C17.05 75.88 17.47 74.58 17.72 73.24C17.85 72.47 17.96 71.69 18.01 70.92C18.07 70.17 18.11 69.4 18.1 68.65C18.0919 67.0076 17.9118 65.3718 17.7319 63.7372L17.7316 63.7337C17.6903 63.3591 17.6491 62.9845 17.61 62.61C17.4 60.64 17.38 58.65 17.67 56.68C13.19 60.33 11.65 67.23 13.17 72.73C13.18 72.82 13.21 72.91 13.26 72.98C13.2324 72.9432 13.2069 72.9084 13.1835 72.8748C13.1561 72.8355 13.1316 72.7978 13.11 72.76C10.05 67.49 5.64001 61.96 0.76001 58.3C0.861389 58.6397 0.962433 58.9794 1.06345 59.319L1.06381 59.3203C1.72983 61.5595 2.39468 63.7948 3.14999 66C4 68.48 5.09 70.9 6.69 72.99C7.23001 73.73 7.82001 74.42 8.48001 75.05C9.13 75.67 9.82999 76.24 10.58 76.71C11.8 77.48 13.15 78.01 14.58 78.14C14.97 78.18 15.36 78.25 15.76 78.34C15.8169 78.34 15.8474 78.3466 15.8836 78.3545L15.91 78.36ZM14.78 75.42C14.99 74.34 15.15 73.24 15.28 72.13C15.28 72.12 15.28 72.11 15.29 72.1C15.44 71 15.53 69.91 15.6 68.81C15.6468 68.0076 15.6758 67.2097 15.7047 66.4104C15.7191 66.0145 15.7335 65.6173 15.75 65.22L15.7522 65.164C15.8015 63.9021 15.8515 62.6213 15.95 61.36C15.68 62.55 15.49 63.76 15.35 64.98C15.22 66.13 15.14 67.29 15.07 68.45C15 69.58 14.95 70.7 14.9 71.83C14.89 71.98 14.88 72.13 14.88 72.28C14.83 73.32 14.79 74.38 14.78 75.42ZM11.24 73.88C12.15 74.6 13.11 75.23 14.12 75.75C13.27 75.11 12.44 74.41 11.67 73.68C11.5893 73.6127 11.513 73.5409 11.4352 73.4676C11.3974 73.4319 11.3593 73.396 11.32 73.36C10.44 72.52 9.59 71.61 8.81 70.66C7.97 69.63 7.17999 68.55 6.42999 67.45C5.60999 66.22 4.82999 64.97 4.06 63.71C4.70001 65.15 5.41998 66.56 6.23999 67.92C6.94 69.13 7.74002 70.28 8.64001 71.34C9.40002 72.26 10.28 73.12 11.22 73.86C11.22 73.87 11.23 73.88 11.24 73.88Z" fill="black"/>
<path fill-rule="evenodd" clip-rule="evenodd" d="M9.98001 62.39C9.99787 62.3722 10.0137 62.3503 10.0285 62.3263C10.0468 62.2964 10.0634 62.2632 10.08 62.23C10.3062 61.9448 10.5614 61.679 10.798 61.4325L10.81 61.42C11.74 60.54 12.5 59.47 13.14 58.35C13.85 57.04 14.38 55.64 14.81 54.21C14.98 53.65 15.13 53.07 15.26 52.48C15.4617 51.6365 15.6335 50.7781 15.8051 49.9207C15.9143 49.3754 16.0234 48.8304 16.14 48.29C16.53 46.41 17.08 44.55 17.93 42.83C13.88 44.38 11 48.41 9.78 52.48C9.46002 53.61 9.24002 54.76 9.16001 55.93C9.16001 56.19 9.15003 56.44 9.14002 56.69C9.09003 56.45 9.04001 56.19 8.98999 55.94C8.73001 54.78 8.40003 53.63 8.04001 52.48C6.65003 47.99 4.86002 43.13 2.04999 39.29C2.0463 40.2334 2.03311 41.1768 2.01993 42.1202C1.99735 43.7368 1.97476 45.3534 2 46.97C2.05002 48.82 2.20001 50.67 2.56 52.48C2.72 53.21 2.91001 53.93 3.16001 54.63C3.72003 56.3 4.51001 57.89 5.60999 59.26C6.5 60.31 7.59 61.21 8.82999 61.76C9.16001 61.91 9.48999 62.09 9.79999 62.28L9.8132 62.2894C9.87531 62.3339 9.91455 62.3619 9.98001 62.39ZM9.81 59.41C10.32 58.49 10.8 57.55 11.24 56.6C11.69 55.6 12.09 54.6 12.48 53.57C12.534 53.4125 12.592 53.253 12.6505 53.0923C12.7219 52.896 12.794 52.698 12.86 52.5C13.14 51.74 13.41 50.96 13.66 50.2C14.06 48.99 14.51 47.8 14.98 46.61C14.38 47.65 13.85 48.72 13.37 49.83C12.98 50.72 12.64 51.6 12.31 52.5C12.2964 52.5368 12.2833 52.5735 12.2702 52.6103C12.236 52.7069 12.2028 52.803 12.1667 52.8973C12.1458 52.9522 12.1238 53.0066 12.1 53.06C11.91 53.58 11.7175 54.1025 11.525 54.625C11.3325 55.1475 11.14 55.67 10.95 56.19C10.56 57.27 10.18 58.34 9.81 59.41ZM7.07001 56.94C7.67001 57.86 8.34998 58.73 9.10999 59.5C8.44998 58.53 7.81998 57.52 7.26999 56.46C6.69998 55.38 6.19998 54.26 5.76999 53.12C5.73352 53.0288 5.69913 52.9355 5.66397 52.8402C5.62201 52.7264 5.57895 52.6097 5.53 52.49C5.17001 51.44 4.85999 50.39 4.54999 49.33C4.16998 47.95 3.82001 46.55 3.5 45.15C3.66001 46.69 3.90003 48.21 4.23001 49.73C4.42002 50.66 4.66001 51.58 4.97 52.49C5.10001 52.91 5.25 53.31 5.41001 53.72C5.86002 54.84 6.4 55.92 7.07001 56.94Z" fill="black"/>
<path fill-rule="evenodd" clip-rule="evenodd" d="M9.28 45.45C9.29999 45.4367 9.31998 45.4222 9.33997 45.4078C9.37998 45.3789 9.41999 45.35 9.45999 45.33C9.73999 45.14 10.02 44.98 10.33 44.83C11.44 44.3 12.43 43.58 13.34 42.75C14.35 41.81 15.24 40.72 16.05 39.59C17.0085 38.2245 17.8199 36.7691 18.632 35.3125L18.7321 35.1328C18.7847 35.0385 18.8373 34.9442 18.89 34.85C19.76 33.31 20.74 31.84 21.97 30.57C16.89 30.88 12.34 34.86 10.44 39.44C10.405 39.54 10.365 39.6425 10.325 39.745C10.3027 39.8022 10.2803 39.8595 10.2589 39.9163C10.2419 39.9612 10.2254 40.0058 10.21 40.05C10.25 39.84 10.27 39.62 10.28 39.4C10.74 34.14 10.37 28.01 8.48999 23C8.23291 23.8355 7.96866 24.6682 7.70432 25.5013C7.26953 26.8714 6.83417 28.2433 6.43 29.63C5.78 31.87 5.33002 34.18 5.38001 36.52C5.41001 38.15 5.66999 39.8 6.26999 41.32C6.78 42.53 7.48001 43.64 8.43 44.54C8.69 44.77 8.92002 45.02 9.15 45.28C9.17301 45.326 9.20774 45.366 9.24521 45.4093C9.25656 45.4224 9.26837 45.4361 9.28 45.45ZM10.02 42.7C10.74 42.03 11.45 41.34 12.12 40.62C12.81 39.88 13.49 39.1 14.12 38.32C14.6486 37.667 15.1651 37.0019 15.6837 36.3341L15.7003 36.3129C15.8433 36.1287 15.9864 35.9443 16.13 35.76C16.82 34.84 17.54 33.93 18.28 33.04C17.46 33.77 16.7 34.54 15.96 35.36C15.26 36.15 14.57 36.95 13.91 37.76C13.26 38.56 12.62 39.36 12 40.17C11.33 41.01 10.67 41.85 10.02 42.7ZM8.26999 39.68C8.54001 40.68 8.92002 41.65 9.38001 42.58C9.05002 41.51 8.78 40.42 8.57999 39.31C8.38001 38.21 8.24002 37.09 8.17002 35.97C8.10004 34.77 8.08002 33.57 8.10001 32.37C8.12003 31.08 8.18 29.77 8.26999 28.48C8 29.84 7.82001 31.23 7.70999 32.62C7.60001 33.87 7.59003 35.12 7.70001 36.37C7.78003 37.49 7.95001 38.59 8.26999 39.68Z" fill="black"/>
<path fill-rule="evenodd" clip-rule="evenodd" d="M13.85 29.5C13.92 29.51 14.01 29.52 14.08 29.52C15.47 29.69 16.79 29.31 18.04 28.74C19.21 28.21 20.32 27.51 21.34 26.73C22.6307 25.7596 23.7884 24.6383 24.955 23.5082L25.17 23.3C25.2479 23.2295 25.3217 23.159 25.3944 23.0896C25.5176 22.9719 25.638 22.8568 25.77 22.75C26.82 21.8 27.94 20.94 29.16 20.23C27.18 19.8 25.11 20.03 23.22 20.6C20.61 21.35 18.25 22.8 16.45 24.85L16.369 24.9511C16.2334 25.1203 16.0932 25.2951 15.96 25.47C16.07 25.23 16.18 24.98 16.27 24.73C17.32 22.12 17.95 19.33 18.39 16.54C18.74 14.36 19.05 12.09 18.87 9.87C18.5139 10.3989 18.1553 10.9278 17.7964 11.4571L17.7947 11.4597C17.1362 12.4308 16.4768 13.4033 15.83 14.38C15.7316 14.5386 15.6272 14.6971 15.5217 14.8573C15.4773 14.9248 15.4327 14.9925 15.3883 15.0607C15.3453 15.1267 15.3024 15.1931 15.26 15.26C14.1 17.05 13.09 18.96 12.53 21.02C12.13 22.46 11.92 23.96 12.05 25.46C12.21 26.9 12.65 28.29 13.68 29.34C13.7279 29.3799 13.7759 29.4262 13.8187 29.4688C13.8295 29.4795 13.8399 29.4899 13.85 29.5ZM15.07 27.74C15.9 27.37 16.73 26.97 17.53 26.53C18.35 26.09 19.15 25.59 19.94 25.08C20.78 24.53 21.6 23.95 22.43 23.36C22.7833 23.1183 23.1301 22.8766 23.4754 22.6359L23.4791 22.6333C23.8755 22.357 24.2699 22.0821 24.67 21.81C24.72 21.7767 24.7688 21.7434 24.8177 21.7101C24.9155 21.6434 25.0133 21.5767 25.12 21.51C25.0633 21.5367 25.0066 21.5645 24.9499 21.5923C24.8366 21.6478 24.7233 21.7033 24.61 21.75C23.85 22.12 23.11 22.52 22.38 22.96C21.55 23.46 20.71 23.99 19.89 24.52C19.11 25.05 18.31 25.57 17.51 26.09C16.69 26.65 15.88 27.2 15.07 27.74ZM14.29 24.61C14.28 25.56 14.36 26.51 14.52 27.45C14.51 26.42 14.57 25.41 14.68 24.39C14.79 23.36 14.98 22.34 15.19 21.33C15.44 20.25 15.73 19.19 16.07 18.14C16.1733 17.83 16.2756 17.5188 16.3778 17.2077C16.5823 16.5855 16.7867 15.9633 17 15.35C17.07 15.14 17.16 14.93 17.23 14.72C17.14 14.91 17.04 15.11 16.94 15.3C16.46 16.27 16.04 17.25 15.66 18.26C15.24 19.33 14.89 20.43 14.66 21.56C14.45 22.55 14.31 23.58 14.29 24.61Z" fill="black"/>
<path fill-rule="evenodd" clip-rule="evenodd" d="M21.3257 18.0063C21.3365 18.0083 21.3459 18.01 21.35 18.01C21.6458 18.1061 21.958 18.1257 22.2744 18.1456C22.3858 18.1525 22.4981 18.1596 22.61 18.17C23.72 18.26 24.83 18.16 25.91 17.92C27.15 17.67 28.34 17.23 29.48 16.71C30.88 16.0745 32.2037 15.2862 33.5213 14.5015L33.86 14.3C35.27 13.47 36.74 12.74 38.29 12.24C33.74 10.38 27.94 11.72 24.34 14.84C23.78 15.33 23.25 15.85 22.74 16.38C22.8331 16.2755 22.9261 16.1707 23.0194 16.0657C23.4169 15.618 23.8169 15.1674 24.23 14.73C27.6 10.99 30.55 5.89999 31.9 1C31.2878 1.48973 30.6727 1.97505 30.0575 2.46048L30.0546 2.46277C29.0628 3.24535 28.0707 4.02815 27.09 4.83C25.53 6.13 24.04 7.57001 22.89 9.27C22.1 10.47 21.45 11.79 21.11 13.2C20.82 14.34 20.76 15.54 20.95 16.7C20.9593 16.7557 20.9682 16.8115 20.9771 16.8674L20.9783 16.8746C21.0363 17.2383 21.0949 17.6053 21.25 17.95C21.27 17.96 21.28 17.98 21.28 18C21.2917 18 21.3103 18.0034 21.3257 18.0063ZM23.27 16.51C24.15 16.32 25.01 16.1 25.88 15.86C26.76 15.6 27.62 15.31 28.49 14.98C29.39 14.62 30.31 14.25 31.22 13.88C32.21 13.47 33.18 13.07 34.17 12.68C33.18 12.91 32.22 13.19 31.26 13.51C30.36 13.84 29.47 14.16 28.56 14.48L28.5521 14.483C27.6848 14.812 26.8174 15.141 25.96 15.47C25.2564 15.7358 24.5588 16.0077 23.8579 16.281C23.6623 16.3573 23.4664 16.4336 23.27 16.51ZM23.26 13.15C22.96 14.03 22.71 14.92 22.58 15.84C22.89 14.9 23.27 13.97 23.66 13.08C24.09 12.17 24.55 11.28 25.06 10.42C25.61 9.50999 26.21 8.62 26.83 7.75999C27.51 6.81999 28.2 5.89 28.93 4.97C28.04 5.85001 27.21 6.76999 26.44 7.73C25.75 8.59 25.1 9.5 24.53 10.45C24.03 11.31 23.6 12.21 23.26 13.15Z" fill="black"/>
<path fill-rule="evenodd" clip-rule="evenodd" d="M90.21 8.17C90.63 8.74001 91.1 9.31999 91.56 9.87C90.9 9.59 90.22 9.35999 89.5 9.17999C87.9 8.76999 86.32 8.28 84.77 7.72C83.15 7.14 81.57 6.46001 80.02 5.71001C78.4367 4.9483 76.89 4.07672 75.3485 3.20811C75.0889 3.06181 74.8295 2.9156 74.57 2.77C73.16 1.96001 71.68 1.25999 70.12 0.720001C71.79 0.75 73.46 0.779999 75.12 0.830002C77.31 0.910004 79.51 1.23 81.57 1.97C83.34 2.58 85 3.43999 86.5 4.53999C87.92 5.56999 89.16 6.78999 90.21 8.17ZM87.38 6.99001C87.85 7.29001 88.3 7.61 88.75 7.94C88.6028 7.86348 88.4574 7.78696 88.313 7.71094C87.9666 7.52869 87.6258 7.34937 87.28 7.17999L87.2753 7.17761C86.7869 6.92841 86.2984 6.67917 85.8 6.42C85.15 6.08 84.48 5.75 83.81 5.42C83.14 5.09999 82.47 4.78001 81.79 4.46001C81.6563 4.40079 81.5229 4.34157 81.3897 4.28241C80.8256 4.03192 80.2643 3.78268 79.69 3.53999C78.98 3.23999 78.25 2.94 77.5 2.66C77.202 2.55054 76.904 2.44476 76.6038 2.3382C76.4103 2.26953 76.2159 2.20053 76.02 2.13C76.53 2.27 77.04 2.42 77.53 2.56C78.29 2.78 79.06 3.01999 79.8 3.28999C80.5 3.53999 81.23 3.82001 81.93 4.11C82.63 4.39999 83.32 4.72 83.99 5.05C84.66 5.38 85.32 5.73 85.97 6.11C86.44 6.39 86.92 6.68001 87.38 6.99001Z" fill="black"/>
<path fill-rule="evenodd" clip-rule="evenodd" d="M60.82 104.92C60.84 104.9 60.87 104.88 60.88 104.85C61.23 104.47 61.55 104.08 61.81 103.63C62.64 102.29 63.69 101.11 64.86 100.04C66.14 98.86 67.57 97.84 69.05 96.92C70.5244 95.9888 72.0771 95.1961 73.624 94.4063C74.0703 94.1785 74.5166 93.9507 74.96 93.72C75.78 93.3 76.56 92.85 77.31 92.35C78.37 91.65 79.38 90.88 80.29 90C80.17 91.94 79.51 93.82 78.62 95.52C76.79 99.13 73.73 102.02 70.07 103.61C69.17 104 68.2 104.28 67.23 104.5C68.22 104.46 69.22 104.43 70.23 104.47C74.47 104.6 78.73 105.21 82.9 106.04C85.06 106.44 87.25 106.86 89.31 107.62L88.6055 107.843C87.1346 108.308 85.6734 108.77 84.19 109.21C82.97 109.57 81.75 109.91 80.53 110.22C77.62 110.95 74.59 111.37 71.6 111.08C69.52 110.89 67.45 110.37 65.6 109.39C64.15 108.62 62.82 107.54 61.85 106.17C61.56 105.74 61.24 105.34 60.87 104.96C60.87 104.956 60.8661 104.951 60.859 104.946C60.8537 104.942 60.8466 104.937 60.8382 104.932L60.82 104.92ZM64.42 104.52C65.37 103.68 66.33 102.85 67.32 102.05C68.32 101.25 69.34 100.48 70.38 99.73C71.0786 99.222 71.7772 98.73 72.4783 98.2363C72.8812 97.9526 73.2849 97.6683 73.69 97.38C74.85 96.55 75.99 95.7 77.12 94.8C76.18 95.81 75.21 96.76 74.16 97.63C73.15 98.47 72.1 99.27 71.04 100.04C69.99 100.8 68.93 101.55 67.86 102.28C66.71 103.05 65.58 103.8 64.42 104.52ZM67.98 107.23C66.76 106.76 65.58 106.15 64.48 105.43C65.8 105.99 67.11 106.47 68.49 106.83C69.86 107.22 71.25 107.51 72.66 107.71C74.15 107.93 75.68 108.04 77.2 108.08C78.86 108.14 80.51 108.14 82.16 108.08C80.4 108.36 78.62 108.54 76.84 108.58C75.25 108.62 73.65 108.54 72.08 108.3C70.68 108.09 69.3 107.74 67.98 107.23Z" fill="black"/>
<path fill-rule="evenodd" clip-rule="evenodd" d="M79.17 101.63C79.1767 101.59 79.1922 101.559 79.2078 101.528C79.2156 101.512 79.2234 101.497 79.23 101.48C79.36 101.06 79.49 100.62 79.57 100.17C79.66 99.7 79.75 99.25 79.88 98.8C80.19 97.82 80.59 96.85 81.05 95.93C81.83 94.41 82.78 93.01 83.83 91.68C84.8561 90.3499 85.9978 89.1237 87.1408 87.8961L87.1417 87.8952C87.5022 87.5081 87.8628 87.1208 88.22 86.73C89.22 85.66 90.15 84.51 90.94 83.27C91.31 82.73 91.63 82.15 91.93 81.57C92.2 82.59 92.31 83.64 92.31 84.69C92.32 89.46 90.22 94.15 86.82 97.41C86.17 98.02 85.45 98.57 84.72 99.06L84.8299 99.0131C85.6125 98.6788 86.3885 98.3475 87.21 98.08C91.98 96.43 97 95.34 101.99 94.72C103.17 94.58 104.37 94.46 105.55 94.48C105.307 94.6629 105.063 94.8458 104.819 95.0287C104.33 95.3958 103.841 95.7629 103.36 96.13C101.75 97.34 100.13 98.55 98.46 99.69C96.05 101.33 93.47 102.74 90.68 103.51C88.77 104.04 86.77 104.28 84.79 104.04C83.7 103.91 82.64 103.62 81.66 103.15C81.23 102.94 80.84 102.7 80.47 102.43C80.09 102.16 79.71 101.93 79.32 101.72C79.27 101.68 79.22 101.65 79.17 101.63ZM82.08 99.91C82.64 98.84 83.24 97.76 83.86 96.72C84.49 95.65 85.16 94.61 85.86 93.58C86.62 92.48 87.36 91.41 88.13 90.34L88.1316 90.3377C88.931 89.1785 89.7305 88.0192 90.48 86.82C89.93 88.05 89.32 89.24 88.64 90.39C88.0079 91.4531 87.3299 92.4796 86.6587 93.4957L86.57 93.63C85.86 94.68 85.15 95.71 84.41 96.74C83.65 97.8 82.87 98.87 82.08 99.91ZM86.1 101.1C84.87 101.09 83.64 100.96 82.43 100.69C83.76 100.75 85.1 100.71 86.43 100.59C87.79 100.47 89.14 100.25 90.47 99.94C91.9 99.62 93.29 99.2 94.69 98.72C96.2 98.2 97.71 97.63 99.19 97.02C97.69 97.87 96.12 98.64 94.52 99.29C93.1 99.86 91.64 100.35 90.14 100.67C88.81 100.95 87.45 101.1 86.1 101.1Z" fill="black"/>
<path fill-rule="evenodd" clip-rule="evenodd" d="M94.51 92.2C94.52 92.1401 94.52 92.0902 94.52 92.0304C94.52 91.6004 94.5 91.17 94.43 90.75C94.22 89.46 94.25 88.14 94.38 86.83C94.39 86.7101 94.4 86.5899 94.43 86.46C94.65 84.85 95.06 83.28 95.61 81.76C96.194 80.0665 96.9311 78.4494 97.6703 76.8277C97.8172 76.5055 97.9641 76.1832 98.11 75.86C98.96 73.98 99.64 72.01 99.97 69.96C103.35 75.21 102.45 82.81 98.93 87.79C98.92 87.81 98.91 87.82 98.89 87.84C98.895 87.835 98.905 87.8275 98.915 87.82C98.925 87.8125 98.935 87.805 98.94 87.8C103.79 83.48 110.06 79.34 116.21 77.26C115.963 77.618 115.716 77.9766 115.468 78.3355C114.106 80.3127 112.739 82.2972 111.3 84.21C109.63 86.43 107.73 88.53 105.44 90.1C103.88 91.18 102.15 92.05 100.32 92.47C100.19 92.49 100.05 92.52 99.93 92.55C98.6 92.79 97.22 92.79 95.93 92.45C95.51 92.35 95.09 92.26 94.67 92.21C94.6386 92.21 94.61 92.2073 94.5827 92.2047C94.5578 92.2023 94.5339 92.2 94.51 92.2ZM96.61 89.69C96.62 89.605 96.6325 89.5225 96.645 89.44C96.6575 89.3575 96.67 89.275 96.68 89.19C96.83 88.2 97 87.23 97.21 86.26C97.44 85.1 97.74 83.95 98.05 82.8C98.3582 81.6605 98.7013 80.5298 99.0467 79.3915L99.12 79.15C99.5 77.85 99.86 76.53 100.21 75.21C100.06 76.49 99.87 77.78 99.6 79.04C99.34 80.25 99.03 81.44 98.7 82.64C98.38 83.8 98.05 84.95 97.71 86.11C97.4 87.16 97.08 88.21 96.75 89.27C96.71 89.4 96.66 89.55 96.61 89.69ZM97.405 90.23C97.325 90.245 97.245 90.26 97.16 90.27C97.2998 90.2201 97.4402 90.1699 97.57 90.12C98.66 89.78 99.7 89.35 100.72 88.88C101.92 88.34 103.05 87.71 104.16 87.01C105.36 86.26 106.49 85.44 107.6 84.58C108.83 83.61 110.02 82.63 111.2 81.61C110.07 82.85 108.89 84.03 107.63 85.13C106.52 86.11 105.35 87 104.08 87.77C102.98 88.44 101.81 89.02 100.59 89.45C99.64 89.78 98.65 90.04 97.65 90.19C97.565 90.2 97.485 90.215 97.405 90.23Z" fill="black"/>
<path fill-rule="evenodd" clip-rule="evenodd" d="M105.714 78.3032C105.71 78.2936 105.706 78.2845 105.703 78.2755C105.693 78.2538 105.685 78.233 105.68 78.21C105.55 77.82 105.4 77.46 105.21 77.09C104.59 75.88 104.17 74.58 103.92 73.24C103.79 72.47 103.68 71.69 103.63 70.92C103.57 70.17 103.53 69.4 103.54 68.65C103.548 67.0075 103.728 65.3716 103.908 63.7369C103.949 63.3612 103.991 62.9856 104.03 62.61C104.24 60.64 104.26 58.65 103.97 56.68C108.45 60.33 109.99 67.23 108.47 72.73C108.46 72.82 108.43 72.91 108.38 72.98C108.398 72.9557 108.416 72.9323 108.432 72.9095C108.439 72.9001 108.445 72.8908 108.452 72.8815C108.481 72.8398 108.507 72.7999 108.53 72.76C111.59 67.49 116 61.96 120.88 58.3C120.779 58.6393 120.678 58.9786 120.577 59.3178C119.911 61.5579 119.246 63.794 118.49 66C117.64 68.48 116.55 70.9 114.95 72.99C114.41 73.73 113.82 74.42 113.16 75.05C112.51 75.67 111.81 76.24 111.06 76.71C109.84 77.48 108.49 78.01 107.06 78.14C106.67 78.18 106.28 78.25 105.88 78.34C105.828 78.34 105.79 78.3476 105.748 78.3562L105.73 78.36C105.727 78.3391 105.721 78.3205 105.714 78.3032ZM106.87 75.42C106.66 74.34 106.5 73.24 106.37 72.13C106.37 72.12 106.37 72.11 106.36 72.1C106.21 71 106.12 69.91 106.06 68.81C106.013 68.0076 105.984 67.2097 105.955 66.4104L105.941 66.0292C105.931 65.7599 105.921 65.4902 105.91 65.22L105.908 65.164C105.859 63.9021 105.809 62.6213 105.71 61.36C105.98 62.55 106.17 63.76 106.31 64.98C106.44 66.13 106.52 67.29 106.59 68.45C106.66 69.58 106.71 70.7 106.76 71.83C106.77 71.98 106.78 72.13 106.78 72.28C106.82 73.32 106.85 74.38 106.87 75.42ZM110.4 73.88C109.5 74.6 108.53 75.23 107.52 75.75C108.38 75.11 109.21 74.41 109.98 73.68C110.061 73.6127 110.137 73.5409 110.215 73.4677C110.253 73.432 110.291 73.396 110.33 73.36C111.21 72.52 112.06 71.61 112.84 70.66C113.68 69.63 114.46 68.55 115.22 67.45C116.04 66.22 116.82 64.97 117.59 63.71C116.95 65.15 116.23 66.56 115.41 67.92C114.7 69.13 113.91 70.28 113.01 71.34C112.24 72.26 111.36 73.12 110.42 73.86C110.42 73.87 110.41 73.88 110.4 73.88Z" fill="black"/>
<path fill-rule="evenodd" clip-rule="evenodd" d="M111.604 62.2956C111.592 62.2744 111.581 62.2522 111.57 62.23C111.344 61.9451 111.089 61.6795 110.853 61.4331L110.84 61.42C109.91 60.54 109.14 59.47 108.51 58.35C107.8 57.04 107.27 55.64 106.84 54.21C106.67 53.65 106.52 53.07 106.39 52.48C106.164 51.5359 105.971 50.5731 105.779 49.6139C105.69 49.1711 105.602 48.729 105.51 48.29C105.12 46.41 104.57 44.55 103.72 42.83C107.77 44.38 110.65 48.41 111.86 52.48C112.18 53.61 112.4 54.76 112.48 55.93C112.48 55.9784 112.48 56.0264 112.481 56.0742C112.482 56.1212 112.483 56.168 112.484 56.2146C112.487 56.3748 112.494 56.5324 112.5 56.69C112.533 56.5296 112.567 56.3602 112.6 56.1909C112.617 56.1069 112.633 56.0229 112.65 55.94C112.91 54.78 113.24 53.63 113.6 52.48C114.99 47.99 116.78 43.13 119.59 39.29C119.594 40.2331 119.607 41.1762 119.62 42.1193C119.643 43.7362 119.665 45.3531 119.64 46.97C119.59 48.82 119.44 50.67 119.08 52.48C118.92 53.21 118.73 53.93 118.48 54.63C117.92 56.3 117.13 57.89 116.03 59.26C115.14 60.31 114.05 61.21 112.81 61.76C112.48 61.91 112.15 62.09 111.84 62.28C111.78 62.33 111.73 62.36 111.67 62.39C111.645 62.3648 111.624 62.3316 111.604 62.2956ZM111.84 59.41C111.33 58.49 110.85 57.55 110.41 56.6C109.96 55.6 109.56 54.6 109.17 53.57C109.116 53.4126 109.058 53.2532 109 53.0927C108.969 53.0087 108.938 52.924 108.908 52.8395C108.867 52.7266 108.828 52.6133 108.79 52.5C108.51 51.74 108.24 50.96 107.98 50.2C107.58 48.99 107.13 47.8 106.66 46.61C107.26 47.65 107.79 48.72 108.27 49.83C108.66 50.72 109 51.6 109.33 52.5C109.351 52.5566 109.371 52.6133 109.391 52.6697C109.438 52.8024 109.484 52.9337 109.54 53.06C109.612 53.2572 109.685 53.4548 109.757 53.6526C109.876 53.9764 109.996 54.3007 110.115 54.625C110.307 55.1475 110.5 55.67 110.69 56.19C111.078 57.265 111.456 58.33 111.835 59.395L111.84 59.41ZM114.57 56.94C113.97 57.86 113.29 58.73 112.53 59.5C113.19 58.53 113.83 57.52 114.37 56.46C114.94 55.38 115.44 54.26 115.87 53.12C115.906 53.0288 115.941 52.9355 115.976 52.8402C116.018 52.7264 116.061 52.6097 116.11 52.49C116.47 51.44 116.78 50.39 117.09 49.33C117.47 47.95 117.82 46.55 118.14 45.15C117.98 46.69 117.74 48.21 117.41 49.73C117.22 50.66 116.98 51.58 116.67 52.49C116.54 52.91 116.39 53.31 116.23 53.72C115.78 54.84 115.24 55.92 114.57 56.94Z" fill="black"/>
<path fill-rule="evenodd" clip-rule="evenodd" d="M112.326 45.4264L112.3 45.4078C112.26 45.3789 112.22 45.35 112.18 45.33C111.9 45.14 111.62 44.98 111.31 44.83C110.2 44.3 109.21 43.58 108.3 42.75C107.29 41.81 106.4 40.72 105.59 39.59C104.632 38.2248 103.82 36.7697 103.009 35.3134C102.923 35.1591 102.836 35.0043 102.75 34.85C101.88 33.31 100.9 31.84 99.66 30.57C104.74 30.88 109.29 34.86 111.19 39.44C111.225 39.54 111.265 39.6425 111.305 39.745C111.345 39.8475 111.385 39.95 111.42 40.05C111.38 39.84 111.36 39.62 111.35 39.4C110.89 34.14 111.26 28.01 113.14 23C113.396 23.832 113.659 24.6612 113.922 25.4908L113.926 25.5013C114.36 26.8714 114.796 28.2433 115.2 29.63C115.85 31.87 116.3 34.18 116.25 36.52C116.22 38.15 115.96 39.8 115.36 41.32C114.85 42.53 114.15 43.64 113.2 44.54C112.94 44.77 112.71 45.02 112.48 45.28C112.464 45.329 112.427 45.3714 112.387 45.418C112.378 45.4284 112.369 45.4391 112.36 45.45C112.349 45.4424 112.337 45.4345 112.326 45.4264ZM111.62 42.7C110.9 42.03 110.19 41.34 109.52 40.62C108.83 39.88 108.15 39.1 107.52 38.32C106.99 37.6653 106.472 36.9984 105.952 36.3289C105.805 36.1394 105.658 35.9497 105.51 35.76C104.82 34.84 104.1 33.93 103.36 33.04C104.18 33.77 104.94 34.54 105.68 35.36L105.732 35.42C106.405 36.1905 107.087 36.9706 107.73 37.76C108.38 38.56 109.02 39.36 109.64 40.17C110.32 41.01 110.98 41.85 111.62 42.7ZM113.38 39.68C113.11 40.68 112.73 41.65 112.27 42.58C112.6 41.51 112.86 40.42 113.06 39.31C113.27 38.21 113.41 37.09 113.48 35.97C113.55 34.77 113.58 33.57 113.55 32.37C113.53 31.08 113.47 29.77 113.38 28.48C113.65 29.84 113.83 31.23 113.94 32.62C114.05 33.87 114.06 35.12 113.95 36.37C113.87 37.49 113.7 38.59 113.38 39.68Z" fill="black"/>
<path fill-rule="evenodd" clip-rule="evenodd" d="M107.79 29.5C107.72 29.51 107.63 29.52 107.56 29.52C106.17 29.69 104.85 29.31 103.6 28.74C102.43 28.21 101.32 27.51 100.3 26.73C99.0093 25.7597 97.8518 24.6385 96.6853 23.5085L96.47 23.3C96.3922 23.2296 96.3185 23.1592 96.2459 23.0898C96.1225 22.972 96.0022 22.857 95.87 22.75C94.82 21.8 93.7 20.94 92.48 20.23C94.46 19.8 96.53 20.03 98.42 20.6C101.03 21.35 103.39 22.8 105.19 24.85L105.27 24.9501C105.406 25.1195 105.546 25.2948 105.68 25.47C105.57 25.23 105.46 24.98 105.37 24.73C104.32 22.12 103.69 19.33 103.25 16.54C102.9 14.36 102.59 12.09 102.78 9.87C103.136 10.3981 103.494 10.9263 103.852 11.4548L103.858 11.4632C104.515 12.4331 105.174 13.4045 105.82 14.38C105.918 14.5385 106.023 14.6971 106.128 14.8572C106.175 14.9283 106.222 14.9998 106.269 15.0717C106.31 15.1341 106.35 15.1968 106.39 15.26C107.55 17.05 108.56 18.96 109.12 21.02C109.52 22.46 109.73 23.96 109.6 25.46C109.44 26.9 109 28.29 107.96 29.34C107.935 29.3604 107.911 29.3826 107.887 29.405C107.853 29.4374 107.82 29.4705 107.79 29.5ZM106.57 27.74C105.74 27.37 104.91 26.97 104.11 26.53C103.29 26.09 102.49 25.59 101.7 25.08C100.86 24.53 100.04 23.95 99.21 23.36C99.0272 23.2349 98.846 23.1098 98.666 22.9849C98.4969 22.8675 98.3286 22.7502 98.1608 22.6332C97.7645 22.357 97.3701 22.0821 96.97 21.81C96.9201 21.7767 96.8713 21.7435 96.8225 21.7102C96.771 21.6751 96.7195 21.64 96.6667 21.6048C96.6191 21.5732 96.5706 21.5416 96.52 21.51C96.5767 21.5367 96.6334 21.5645 96.6901 21.5923C96.8032 21.6477 96.9169 21.7034 97.03 21.75C97.79 22.12 98.53 22.52 99.26 22.96C100.09 23.46 100.93 23.99 101.75 24.52C102.53 25.05 103.33 25.57 104.13 26.09C104.737 26.5045 105.344 26.9136 105.943 27.3172C106.153 27.4588 106.362 27.5998 106.57 27.74ZM107.35 24.61C107.36 25.56 107.28 26.51 107.12 27.45C107.13 26.42 107.07 25.41 106.96 24.39C106.85 23.36 106.66 22.34 106.45 21.33C106.21 20.25 105.91 19.19 105.57 18.14C105.467 17.83 105.364 17.5188 105.262 17.2077C105.058 16.5855 104.853 15.9633 104.64 15.35C104.605 15.245 104.565 15.14 104.525 15.035C104.485 14.93 104.445 14.825 104.41 14.72C104.46 14.815 104.508 14.9125 104.555 15.01C104.603 15.1075 104.65 15.205 104.7 15.3C105.18 16.27 105.6 17.25 105.98 18.26C106.4 19.33 106.75 20.43 106.98 21.56C107.19 22.55 107.32 23.58 107.35 24.61Z" fill="black"/>
<path fill-rule="evenodd" clip-rule="evenodd" d="M100.37 18C100.363 18 100.354 18.0011 100.345 18.0026C100.326 18.0056 100.307 18.01 100.3 18.01C100.004 18.1061 99.692 18.1257 99.3755 18.1456C99.2642 18.1525 99.1519 18.1596 99.04 18.17C97.93 18.26 96.82 18.16 95.74 17.92C94.49 17.67 93.31 17.23 92.17 16.71C90.7862 16.0859 89.4923 15.3146 88.1997 14.544L87.79 14.3C86.37 13.47 84.91 12.74 83.36 12.24C87.91 10.38 93.71 11.72 97.31 14.84C97.87 15.33 98.4 15.85 98.91 16.38C98.8167 16.2753 98.7234 16.1702 98.63 16.065C98.2327 15.6175 97.8329 15.1672 97.42 14.73C94.06 10.99 91.1 5.89999 89.75 1C90.4065 1.52519 91.0663 2.04533 91.7268 2.56595C92.676 3.31418 93.6265 4.0634 94.57 4.83C96.13 6.13 97.62 7.57001 98.76 9.27C99.55 10.47 100.2 11.79 100.54 13.2C100.83 14.34 100.89 15.54 100.7 16.7C100.691 16.7546 100.682 16.8093 100.673 16.8641C100.615 17.2312 100.555 17.602 100.39 17.95C100.385 17.955 100.38 17.9624 100.376 17.9711C100.373 17.9799 100.37 17.9899 100.37 18ZM98.38 16.51C97.5 16.32 96.64 16.1 95.77 15.86C94.89 15.6 94.03 15.31 93.16 14.98C92.26 14.62 91.34 14.25 90.43 13.88C89.44 13.47 88.47 13.07 87.48 12.68C88.47 12.91 89.43 13.19 90.39 13.51C91.29 13.84 92.18 14.16 93.09 14.48L93.1295 14.495C93.4973 14.6345 93.8652 14.774 94.2323 14.9136C94.4546 14.9981 94.6765 15.0826 94.898 15.1671C95.1628 15.268 95.4268 15.369 95.69 15.47C96.3936 15.7358 97.0912 16.0077 97.7921 16.281C97.9877 16.3573 98.1836 16.4336 98.38 16.51ZM98.38 13.15C98.68 14.03 98.93 14.92 99.06 15.84C98.76 14.9 98.38 13.97 97.98 13.08C97.56 12.17 97.09 11.28 96.58 10.42C96.03 9.50999 95.43 8.62 94.81 7.75999C94.13 6.81999 93.44 5.89 92.71 4.97C93.6 5.85001 94.43 6.76999 95.2 7.73C95.89 8.59 96.54 9.5 97.11 10.45C97.61 11.31 98.04 12.21 98.38 13.15Z" fill="black"/>
<path d="M70.52 81.15C70.37 81.23 70.24 81.27 70.14 81.27C69.94 81.27 69.84 81.17 69.84 80.97C69.84 80.89 69.85 80.77 69.88 80.62L69.94 80.29L70.46 77.71H71.3L71.36 77.38H70.52L70.7 76.46L69.92 76.64L69.77 77.38H69.35L69.29 77.71H69.71L69.21 80.19C69.15 80.5 69.12 80.73 69.12 80.88C69.12 81.33 69.38 81.56 69.89 81.56C70.06 81.56 70.24 81.52 70.45 81.44L70.52 81.15ZM67.38 81.47L67.43 81.24H67.36C67.14 81.23 67.02 81.16 67.02 81.04C67.02 81.02 67.03 80.98 67.03 80.93L67.04 80.87L67.11 80.5L67.53 78.41C67.81 78.1 68.05 77.94 68.26 77.94C68.36 77.94 68.42 77.99 68.42 78.1C68.42 78.15 68.42 78.19 68.41 78.23C68.4 78.25 68.4 78.27 68.4 78.29V78.32C68.4 78.34 68.4 78.35 68.4 78.36V78.38L68.39 78.45H68.74L68.96 77.33C68.89 77.3 68.82 77.29 68.75 77.29C68.37 77.29 67.99 77.54 67.61 78.05L67.75 77.38H66.55L66.51 77.61H66.58C66.8 77.62 66.92 77.69 66.92 77.82C66.92 77.84 66.91 77.9 66.89 77.98L66.82 78.35L66.4 80.48L66.32 80.85C66.29 80.98 66.26 81.07 66.21 81.12C66.17 81.17 66.05 81.2 65.86 81.22H65.79L65.74 81.45H67.38V81.47ZM63.17 76.92L63.72 79.45H61.59L63.17 76.92ZM60.97 81.47L61.02 81.24H60.96C60.75 81.24 60.64 81.2 60.64 81.12C60.64 81.09 60.66 81.04 60.69 80.97L60.82 80.71C60.83 80.68 60.86 80.64 60.9 80.58L60.94 80.51L61.41 79.77H63.79L63.96 80.51C63.99 80.64 64 80.79 64 80.96C64 81.08 63.97 81.16 63.91 81.2C63.85 81.23 63.74 81.25 63.58 81.25H63.51L63.47 81.48H65.31L65.36 81.25H65.28C65.1 81.24 64.99 81.13 64.93 80.93L64.82 80.54L63.81 75.85H63.55L60.66 80.51L60.41 80.9C60.34 81.02 60.27 81.1 60.23 81.15C60.18 81.2 60.07 81.23 59.9 81.25H59.82L59.77 81.48H60.97V81.47ZM55.16 78.04C54.98 77.65 54.89 77.31 54.89 77.01C54.89 76.72 54.97 76.49 55.13 76.3C55.29 76.11 55.5 76.02 55.75 76.02C56.12 76.02 56.31 76.2 56.31 76.54C56.31 76.89 56.19 77.21 55.95 77.5C55.78 77.7 55.53 77.9 55.19 78.1L55.16 78.04ZM54.65 81.19C54.24 81.19 53.92 81.08 53.68 80.87C53.45 80.65 53.33 80.36 53.33 79.97C53.33 79.57 53.45 79.21 53.69 78.9C53.87 78.66 54.12 78.47 54.44 78.33C54.89 79.34 55.35 80.19 55.81 80.89C55.42 81.09 55.04 81.19 54.65 81.19ZM57.62 81.47L57.67 81.24H57.62C57.57 81.23 57.51 81.23 57.45 81.23L57.36 81.22C57.14 81.22 56.96 81.13 56.83 80.94C56.82 80.93 56.82 80.93 56.82 80.92C56.81 80.9 56.79 80.88 56.78 80.87C56.77 80.85 56.75 80.82 56.73 80.8C56.71 80.77 56.68 80.74 56.66 80.71C56.64 80.68 56.62 80.66 56.62 80.66C56.61 80.64 56.59 80.61 56.57 80.59C57.14 80.01 57.47 79.51 57.57 79.07C57.59 78.97 57.62 78.89 57.64 78.85C57.67 78.81 57.73 78.78 57.84 78.78L58.14 78.77H58.22L58.26 78.54H56.5L56.46 78.77H56.53L56.86 78.79C56.99 78.81 57.06 78.86 57.07 78.94V78.95C57.06 78.96 57.06 78.97 57.06 78.98C57.06 78.98 57.06 78.99 57.05 79C57.04 79.01 57.04 79.02 57.04 79.04C57.03 79.07 57.03 79.1 57.03 79.15C56.98 79.61 56.78 80.03 56.44 80.42L56.23 80.03L55.83 79.3L55.44 78.57L55.29 78.29C56.42 77.96 56.98 77.42 56.98 76.68C56.98 76.08 56.59 75.78 55.8 75.78C55.3 75.78 54.9 75.92 54.58 76.21C54.26 76.49 54.1 76.85 54.1 77.27C54.1 77.52 54.19 77.82 54.36 78.15C53.85 78.32 53.45 78.53 53.16 78.8C52.75 79.18 52.55 79.64 52.55 80.17C52.55 80.62 52.7 80.97 52.99 81.23C53.28 81.49 53.68 81.62 54.18 81.62C54.71 81.62 55.3 81.44 55.93 81.09L56.21 81.48H57.62V81.47Z" fill="black"/>
<path d="M95.23 70.33C95.42 70.02 95.65 69.86 95.91 69.86C96.2 69.86 96.35 70.04 96.35 70.39C96.35 70.55 96.31 70.81 96.24 71.18L96.21 71.35H94.88C94.97 70.89 95.09 70.55 95.23 70.33ZM96.61 73.21C96.25 73.4 95.92 73.49 95.61 73.49C95.02 73.49 94.72 73.14 94.72 72.44C94.72 72.23 94.75 71.94 94.82 71.57H96.94L96.96 71.5C97.03 71.17 97.06 70.89 97.06 70.66C97.06 69.95 96.71 69.6 96.02 69.6C95.44 69.6 94.95 69.88 94.53 70.44C94.11 71 93.9 71.64 93.9 72.38C93.9 72.86 94.03 73.22 94.29 73.48C94.55 73.74 94.9 73.87 95.34 73.87C95.69 73.87 96.09 73.78 96.54 73.59L96.61 73.21ZM92.36 73.78L92.41 73.55H92.34C92.12 73.54 92 73.47 92 73.35C92 73.33 92.01 73.29 92.01 73.24L92.03 73.18L92.1 72.81L92.52 70.72C92.8 70.41 93.05 70.25 93.25 70.25C93.35 70.25 93.41 70.3 93.41 70.41C93.41 70.46 93.41 70.5 93.4 70.54C93.39 70.57 93.39 70.59 93.39 70.6V70.63C93.39 70.65 93.39 70.66 93.39 70.67V70.69L93.38 70.76H93.73L93.95 69.64C93.88 69.61 93.81 69.6 93.74 69.6C93.36 69.6 92.98 69.86 92.6 70.36L92.74 69.69H91.54L91.49 69.92H91.56C91.78 69.93 91.9 70 91.9 70.13C91.9 70.15 91.89 70.21 91.87 70.29L91.8 70.66L91.38 72.79L91.3 73.16C91.27 73.29 91.24 73.38 91.19 73.43C91.15 73.48 91.03 73.52 90.85 73.53H90.78L90.74 73.76H92.36V73.78ZM90.24 73.78L90.29 73.55H90.22C90 73.54 89.88 73.47 89.88 73.34C89.88 73.33 89.89 73.29 89.9 73.24L89.91 73.18L89.98 72.81L90.6 69.7H89.4L89.36 69.93H89.43C89.65 69.94 89.77 70.01 89.77 70.14C89.77 70.16 89.76 70.21 89.74 70.3L89.67 70.67L89.23 72.86C88.86 73.21 88.52 73.39 88.23 73.39C88.03 73.39 87.92 73.29 87.92 73.1C87.92 73.04 87.93 72.92 87.96 72.76L88.01 72.47L88.56 69.71H87.36L87.32 69.94H87.39C87.62 69.95 87.73 70.02 87.73 70.15C87.73 70.16 87.73 70.19 87.72 70.24C87.71 70.28 87.7 70.31 87.7 70.31L87.64 70.68L87.26 72.58C87.2 72.85 87.18 73.07 87.18 73.24C87.18 73.67 87.41 73.88 87.87 73.88C88.29 73.88 88.73 73.62 89.19 73.11L89.06 73.78H90.24ZM86.14 73.45C85.99 73.53 85.86 73.57 85.76 73.57C85.56 73.57 85.46 73.47 85.46 73.27C85.46 73.19 85.47 73.07 85.5 72.92L85.56 72.59L86.08 70.01H86.92L86.98 69.68H86.14L86.32 68.76L85.54 68.94L85.39 69.68H84.97L84.91 70.01H85.33L84.83 72.49C84.77 72.8 84.73 73.03 84.73 73.18C84.73 73.63 84.99 73.86 85.5 73.86C85.67 73.86 85.85 73.82 86.06 73.74L86.14 73.45ZM83.76 73.31C83.39 73.43 83.1 73.5 82.91 73.5C82.61 73.5 82.37 73.39 82.18 73.18C81.99 72.97 81.9 72.68 81.9 72.3C81.9 71.67 82.05 71.1 82.34 70.6C82.63 70.1 82.97 69.85 83.36 69.85C83.69 69.85 83.85 69.99 83.85 70.27C83.85 70.4 83.84 70.54 83.81 70.69L83.8 70.76H84.26L84.46 69.79C84.09 69.67 83.74 69.61 83.42 69.61C82.77 69.61 82.22 69.87 81.77 70.38C81.32 70.9 81.09 71.52 81.09 72.24C81.09 72.74 81.23 73.14 81.5 73.43C81.77 73.72 82.13 73.87 82.59 73.87C82.91 73.87 83.28 73.79 83.7 73.64L83.76 73.31ZM78.83 70.33C79.02 70.02 79.25 69.86 79.51 69.86C79.8 69.86 79.95 70.04 79.95 70.39C79.95 70.55 79.91 70.81 79.84 71.18L79.81 71.35H78.48C78.57 70.89 78.69 70.55 78.83 70.33ZM80.21 73.21C79.85 73.4 79.52 73.49 79.21 73.49C78.62 73.49 78.32 73.14 78.32 72.44C78.32 72.23 78.35 71.94 78.42 71.57H80.54L80.55 71.5C80.62 71.17 80.65 70.89 80.65 70.66C80.65 69.95 80.3 69.6 79.61 69.6C79.03 69.6 78.54 69.88 78.12 70.44C77.7 71 77.49 71.64 77.49 72.38C77.49 72.86 77.62 73.22 77.88 73.48C78.14 73.74 78.49 73.87 78.93 73.87C79.28 73.87 79.68 73.78 80.13 73.59L80.21 73.21ZM76.82 73.45C76.67 73.53 76.54 73.57 76.44 73.57C76.24 73.57 76.14 73.47 76.14 73.27C76.14 73.19 76.15 73.07 76.18 72.92L76.24 72.59L76.76 70.01H77.6L77.66 69.68H76.82L77 68.76L76.22 68.94L76.07 69.68H75.65L75.59 70.01H76.01L75.51 72.49C75.45 72.8 75.42 73.03 75.42 73.18C75.42 73.63 75.68 73.86 76.19 73.86C76.36 73.86 76.54 73.82 76.75 73.74L76.82 73.45ZM74.57 73.78L74.62 73.55H74.55C74.26 73.54 74.12 73.46 74.12 73.34C74.12 73.32 74.13 73.27 74.15 73.19L74.22 72.82L74.84 69.71H73.55L73.5 69.94H73.57C73.85 69.96 73.99 70.03 73.99 70.15C73.99 70.17 73.98 70.22 73.96 70.31L73.89 70.68L73.47 72.81L73.39 73.18C73.36 73.31 73.33 73.4 73.3 73.45C73.28 73.49 73.13 73.52 72.85 73.54H72.78L72.73 73.77H74.57V73.78ZM74.99 68.95L75.14 68.21H74.39L74.24 68.95H74.99ZM70.25 73.78L70.3 73.55H70.23C70.01 73.54 69.89 73.47 69.89 73.34C69.89 73.32 69.9 73.29 69.91 73.24C69.92 73.21 69.92 73.19 69.92 73.18L69.98 72.81L70.42 70.63C70.79 70.28 71.12 70.1 71.42 70.1C71.62 70.1 71.72 70.2 71.72 70.39C71.72 70.46 71.71 70.57 71.68 70.74L71.63 71.03L71.27 72.81L71.19 73.18C71.16 73.31 71.13 73.4 71.08 73.45C71.04 73.5 70.92 73.54 70.74 73.55H70.67L70.63 73.78H72.28L72.32 73.55H72.25C72.03 73.54 71.91 73.47 71.91 73.34C71.91 73.33 71.92 73.29 71.93 73.24L71.94 73.18L72.01 72.81L72.39 70.91C72.45 70.62 72.48 70.4 72.48 70.25C72.48 69.82 72.25 69.61 71.79 69.61C71.37 69.61 70.93 69.87 70.47 70.37L70.97 67.84H69.77L69.73 68.07H69.8C70.02 68.08 70.14 68.15 70.14 68.27C70.14 68.29 70.13 68.35 70.11 68.43L70.04 68.8L69.24 72.79L69.16 73.16C69.13 73.29 69.1 73.38 69.05 73.43C69.01 73.49 68.89 73.52 68.71 73.53H68.64L68.59 73.76H70.25V73.78ZM68.16 73.31C67.79 73.43 67.5 73.5 67.31 73.5C67.01 73.5 66.77 73.39 66.58 73.18C66.39 72.97 66.3 72.68 66.3 72.3C66.3 71.67 66.45 71.1 66.74 70.6C67.03 70.1 67.37 69.85 67.76 69.85C68.09 69.85 68.25 69.99 68.25 70.27C68.25 70.4 68.24 70.54 68.21 70.69L68.2 70.76H68.66L68.86 69.79C68.49 69.67 68.14 69.61 67.82 69.61C67.17 69.61 66.62 69.87 66.17 70.38C65.72 70.9 65.49 71.52 65.49 72.24C65.49 72.74 65.63 73.14 65.9 73.43C66.17 73.72 66.53 73.87 66.99 73.87C67.31 73.87 67.68 73.79 68.1 73.64L68.16 73.31ZM63.92 73.78L63.97 73.55H63.9C63.68 73.54 63.56 73.47 63.56 73.35C63.56 73.33 63.57 73.29 63.57 73.24L63.58 73.18L63.65 72.81L64.07 70.72C64.35 70.41 64.59 70.25 64.8 70.25C64.9 70.25 64.96 70.3 64.96 70.41C64.96 70.46 64.96 70.5 64.95 70.54C64.94 70.57 64.94 70.59 64.94 70.6V70.63C64.94 70.65 64.94 70.66 64.94 70.67V70.69L64.93 70.76H65.28L65.5 69.64C65.43 69.61 65.36 69.6 65.29 69.6C64.91 69.6 64.53 69.86 64.15 70.36L64.29 69.69H63.09L63.04 69.92H63.11C63.33 69.93 63.45 70 63.45 70.13C63.45 70.15 63.44 70.21 63.42 70.29L63.35 70.66L62.93 72.79L62.85 73.16C62.82 73.29 62.79 73.38 62.74 73.43C62.7 73.48 62.58 73.52 62.39 73.53H62.32L62.28 73.76H63.92V73.78ZM59.71 69.23L60.26 71.76H58.13L59.71 69.23ZM57.51 73.78L57.56 73.55H57.49C57.28 73.55 57.17 73.51 57.17 73.43C57.17 73.4 57.19 73.35 57.22 73.28L57.36 73.02C57.37 72.99 57.4 72.95 57.44 72.88L57.48 72.81L57.95 72.07H60.33L60.5 72.81C60.53 72.95 60.54 73.09 60.54 73.26C60.54 73.38 60.51 73.46 60.45 73.5C60.39 73.54 60.28 73.55 60.11 73.55H60.04L59.99 73.78H61.83L61.87 73.55H61.79C61.61 73.54 61.5 73.43 61.44 73.23L61.33 72.84L60.32 68.15H60.06L57.17 72.81L56.92 73.2C56.85 73.32 56.78 73.4 56.74 73.45C56.69 73.5 56.58 73.53 56.41 73.54H56.33L56.28 73.77H57.51V73.78ZM54.24 73.78L54.28 73.55H54.21C53.93 73.54 53.78 73.46 53.78 73.34C53.78 73.32 53.79 73.27 53.81 73.19L53.88 72.82L54.87 67.86H53.58L53.54 68.09H53.61C53.89 68.1 54.04 68.18 54.04 68.3C54.04 68.32 54.03 68.37 54.01 68.45L53.94 68.82L53.14 72.81L53.06 73.18C53.03 73.31 53 73.4 52.97 73.45C52.94 73.49 52.8 73.52 52.52 73.54H52.45L52.4 73.77H54.24V73.78ZM50.26 73.43C49.99 73.43 49.85 73.27 49.85 72.94C49.85 72.54 49.96 72.22 50.17 71.97C50.38 71.73 50.67 71.6 51.03 71.6H51.2L50.89 73.14C50.64 73.33 50.43 73.43 50.26 73.43ZM51.52 73.87C51.61 73.87 51.76 73.84 51.96 73.78L51.99 73.5C51.9 73.52 51.83 73.53 51.79 73.53C51.67 73.53 51.62 73.46 51.62 73.32C51.62 73.19 51.65 72.97 51.72 72.64L52.08 70.82C52.12 70.61 52.14 70.44 52.14 70.32C52.14 69.84 51.81 69.59 51.16 69.59C50.74 69.59 50.32 69.71 49.91 69.93L49.78 70.58H50.29L50.3 70.51C50.34 70.3 50.42 70.14 50.54 70.03C50.66 69.92 50.81 69.87 51 69.87C51.28 69.87 51.42 69.98 51.42 70.2C51.42 70.31 51.39 70.52 51.33 70.84L51.23 71.35H51.08C50.44 71.35 49.93 71.5 49.57 71.8C49.2 72.1 49.02 72.51 49.02 73.03C49.02 73.58 49.29 73.86 49.83 73.86C50.26 73.86 50.66 73.64 51.04 73.21C51.06 73.65 51.22 73.87 51.52 73.87ZM48.38 73.31C48.01 73.43 47.72 73.5 47.53 73.5C47.23 73.5 46.99 73.39 46.8 73.18C46.62 72.97 46.52 72.68 46.52 72.3C46.52 71.67 46.67 71.1 46.96 70.6C47.25 70.1 47.59 69.85 47.98 69.85C48.31 69.85 48.47 69.99 48.47 70.27C48.47 70.4 48.46 70.54 48.43 70.69L48.42 70.76H48.88L49.08 69.79C48.71 69.67 48.36 69.61 48.04 69.61C47.39 69.61 46.84 69.87 46.39 70.38C45.94 70.9 45.71 71.52 45.71 72.24C45.71 72.74 45.85 73.14 46.12 73.43C46.39 73.72 46.75 73.87 47.21 73.87C47.53 73.87 47.9 73.79 48.32 73.64L48.38 73.31ZM44.92 73.78L44.96 73.55H44.89C44.61 73.54 44.46 73.46 44.46 73.34C44.46 73.32 44.47 73.27 44.49 73.19L44.56 72.82L45.18 69.71H43.89L43.84 69.94H43.91C44.19 69.96 44.33 70.03 44.33 70.15C44.33 70.17 44.32 70.22 44.3 70.31L44.23 70.68L43.81 72.81L43.73 73.18C43.7 73.31 43.67 73.4 43.64 73.45C43.61 73.49 43.46 73.52 43.19 73.54H43.12L43.07 73.77H44.92V73.78ZM45.34 68.95L45.49 68.21H44.75L44.6 68.95H45.34ZM41.32 73.87C41.77 73.87 42.14 73.73 42.42 73.45C42.7 73.17 42.85 72.82 42.85 72.4C42.85 72.21 42.81 72.06 42.73 71.95C42.66 71.85 42.5 71.69 42.25 71.5L42.07 71.36L41.79 71.15C41.63 71.03 41.56 70.88 41.56 70.7C41.56 70.46 41.62 70.26 41.75 70.1C41.87 69.94 42.04 69.87 42.25 69.87C42.49 69.87 42.61 69.99 42.61 70.24C42.61 70.39 42.6 70.53 42.57 70.67L42.56 70.74H42.93L43.11 69.86C42.84 69.71 42.55 69.63 42.24 69.63C41.82 69.63 41.48 69.76 41.21 70.02C40.95 70.28 40.82 70.59 40.82 70.98C40.82 71.29 41.04 71.61 41.47 71.95L41.66 72.1C41.93 72.3 42.06 72.52 42.06 72.76C42.06 73.05 41.99 73.28 41.85 73.43C41.72 73.58 41.53 73.65 41.29 73.65C40.92 73.65 40.74 73.48 40.74 73.15C40.74 73.1 40.75 73.05 40.75 72.99L40.79 72.72L40.8 72.65H40.43L40.24 73.59C40.61 73.77 40.97 73.87 41.32 73.87ZM38.22 73.87C38.67 73.87 39.04 73.73 39.32 73.45C39.61 73.17 39.75 72.82 39.75 72.4C39.75 72.21 39.71 72.06 39.63 71.95C39.56 71.85 39.4 71.69 39.15 71.5L38.97 71.36L38.69 71.15C38.53 71.03 38.46 70.88 38.46 70.7C38.46 70.46 38.52 70.26 38.65 70.1C38.77 69.94 38.94 69.87 39.15 69.87C39.39 69.87 39.51 69.99 39.51 70.24C39.51 70.39 39.5 70.53 39.46 70.67L39.45 70.74H39.82L40 69.86C39.73 69.71 39.44 69.63 39.13 69.63C38.71 69.63 38.37 69.76 38.1 70.02C37.84 70.28 37.71 70.59 37.71 70.98C37.71 71.29 37.93 71.61 38.36 71.95L38.55 72.1C38.82 72.3 38.95 72.52 38.95 72.76C38.95 73.05 38.88 73.28 38.74 73.43C38.61 73.58 38.42 73.65 38.18 73.65C37.81 73.65 37.63 73.48 37.63 73.15C37.63 73.1 37.63 73.05 37.64 72.99L37.68 72.72L37.69 72.65H37.32L37.13 73.59C37.51 73.77 37.87 73.87 38.22 73.87ZM34.87 73.43C34.6 73.43 34.46 73.27 34.46 72.94C34.46 72.54 34.57 72.22 34.78 71.97C34.99 71.73 35.28 71.6 35.64 71.6H35.81L35.5 73.14C35.26 73.33 35.05 73.43 34.87 73.43ZM36.14 73.87C36.23 73.87 36.38 73.84 36.58 73.78L36.61 73.5C36.52 73.52 36.45 73.53 36.41 73.53C36.29 73.53 36.24 73.46 36.24 73.32C36.24 73.19 36.27 72.97 36.34 72.64L36.71 70.82C36.75 70.61 36.77 70.44 36.77 70.32C36.77 69.84 36.44 69.59 35.79 69.59C35.37 69.59 34.95 69.71 34.54 69.93L34.41 70.58H34.92L34.93 70.51C34.96 70.3 35.05 70.14 35.17 70.03C35.29 69.92 35.44 69.87 35.63 69.87C35.91 69.87 36.05 69.98 36.05 70.2C36.05 70.31 36.02 70.52 35.96 70.84L35.86 71.35H35.71C35.07 71.35 34.56 71.5 34.2 71.8C33.83 72.1 33.65 72.51 33.65 73.03C33.65 73.58 33.92 73.86 34.46 73.86C34.89 73.86 35.29 73.64 35.67 73.21C35.68 73.65 35.83 73.87 36.14 73.87ZM33 73.78L33.04 73.55H32.97C32.68 73.54 32.54 73.46 32.54 73.34C32.54 73.32 32.55 73.27 32.57 73.19L32.64 72.82L33.63 67.86H32.34L32.29 68.09H32.36C32.65 68.1 32.79 68.18 32.79 68.3C32.79 68.32 32.78 68.37 32.76 68.45L32.69 68.82L31.89 72.81L31.81 73.18C31.78 73.31 31.75 73.4 31.72 73.45C31.69 73.49 31.54 73.52 31.27 73.54H31.2L31.15 73.77H33V73.78ZM30.64 73.12C30.05 73.4 29.54 73.54 29.1 73.54C28.57 73.54 28.15 73.39 27.84 73.07C27.53 72.76 27.38 72.32 27.38 71.75C27.38 70.86 27.62 70.05 28.1 69.35C28.56 68.66 29.14 68.32 29.84 68.32C30.13 68.32 30.38 68.38 30.59 68.5C30.8 68.62 30.9 68.76 30.9 68.92C30.9 68.96 30.89 69.02 30.88 69.08L30.86 69.22C30.85 69.27 30.85 69.31 30.84 69.34L30.83 69.41H31.3L31.51 68.35C30.92 68.17 30.37 68.07 29.85 68.07C28.86 68.07 28.06 68.43 27.46 69.14C26.85 69.87 26.54 70.73 26.54 71.72C26.54 72.43 26.73 72.97 27.11 73.35C27.49 73.73 28.04 73.91 28.76 73.91C29.39 73.91 30 73.76 30.59 73.47L30.64 73.12Z" fill="black"/>
<path d="M85.16 66.08L85.2 65.85H85.04C84.76 65.84 84.61 65.78 84.61 65.64C84.61 65.62 84.62 65.59 84.62 65.54L84.63 65.48L84.7 65.11L85.26 62.31H86.09L86.15 62H85.32L85.45 61.36C85.53 60.97 85.6 60.7 85.67 60.55C85.75 60.38 85.9 60.29 86.12 60.29C86.33 60.29 86.44 60.38 86.44 60.56C86.44 60.63 86.43 60.74 86.4 60.87C86.39 60.96 86.38 61.02 86.37 61.07L86.35 61.21H86.77L86.95 60.33C86.73 60.14 86.46 60.05 86.15 60.05C85.71 60.05 85.38 60.18 85.15 60.43C84.94 60.67 84.76 61.13 84.62 61.8L84.58 62H84.06L84 62.33H84.52L83.96 65.11L83.88 65.48C83.85 65.61 83.82 65.7 83.77 65.75C83.73 65.8 83.61 65.83 83.42 65.85H83.35L83.31 66.08H85.16ZM82.49 63.17C82.49 63.96 82.32 64.65 81.98 65.26C81.73 65.7 81.46 65.92 81.18 65.92C80.77 65.92 80.56 65.58 80.56 64.9C80.56 64.2 80.7 63.57 80.97 63.01C81.24 62.45 81.55 62.17 81.91 62.17C82.29 62.16 82.49 62.5 82.49 63.17ZM80.4 62.71C79.98 63.25 79.76 63.9 79.76 64.65C79.76 65.66 80.19 66.17 81.05 66.17C81.68 66.17 82.21 65.91 82.63 65.37C83.06 64.84 83.27 64.19 83.27 63.43C83.27 62.41 82.83 61.9 81.94 61.9C81.34 61.91 80.82 62.18 80.4 62.71ZM75.76 62.63C75.95 62.32 76.18 62.16 76.44 62.16C76.73 62.16 76.88 62.34 76.88 62.69C76.88 62.85 76.84 63.11 76.77 63.47L76.74 63.64H75.41C75.5 63.19 75.62 62.85 75.76 62.63ZM77.14 65.52C76.78 65.71 76.45 65.8 76.14 65.8C75.55 65.8 75.25 65.45 75.25 64.75C75.25 64.54 75.28 64.25 75.35 63.88H77.47L77.48 63.81C77.55 63.48 77.59 63.21 77.59 62.97C77.59 62.26 77.24 61.91 76.55 61.91C75.97 61.91 75.48 62.19 75.06 62.75C74.64 63.31 74.43 63.96 74.43 64.69C74.43 65.17 74.56 65.53 74.82 65.79C75.08 66.05 75.43 66.18 75.87 66.18C76.22 66.18 76.62 66.09 77.07 65.9L77.14 65.52ZM73.75 65.76C73.6 65.84 73.47 65.88 73.37 65.88C73.17 65.88 73.07 65.78 73.07 65.58C73.07 65.5 73.08 65.38 73.11 65.23L73.17 64.9L73.69 62.32H74.53L74.59 61.99H73.75L73.93 61.07L73.15 61.25L73 61.99H72.58L72.52 62.32H72.94L72.44 64.8C72.38 65.11 72.35 65.34 72.35 65.49C72.35 65.94 72.61 66.17 73.12 66.17C73.29 66.17 73.47 66.13 73.68 66.05L73.75 65.76ZM71.47 66.08L71.51 65.85H71.44C71.22 65.84 71.11 65.77 71.11 65.64C71.11 65.63 71.12 65.59 71.13 65.54L71.14 65.48L71.21 65.11L71.83 62H70.63L70.59 62.23H70.66C70.88 62.24 71 62.31 71 62.44C71 62.46 70.99 62.51 70.97 62.6L70.9 62.97L70.46 65.16C70.09 65.51 69.75 65.69 69.46 65.69C69.26 65.69 69.16 65.59 69.16 65.4C69.16 65.34 69.17 65.22 69.2 65.06L69.25 64.77L69.8 62.01H68.6L68.55 62.24H68.62C68.85 62.25 68.96 62.32 68.96 62.45C68.96 62.46 68.95 62.49 68.95 62.54C68.94 62.58 68.93 62.61 68.93 62.61L68.87 62.98L68.49 64.88C68.43 65.15 68.41 65.37 68.41 65.54C68.41 65.97 68.64 66.18 69.1 66.18C69.52 66.18 69.96 65.92 70.42 65.41L70.28 66.08H71.47ZM67.37 65.76C67.22 65.84 67.09 65.88 66.99 65.88C66.79 65.88 66.69 65.78 66.69 65.58C66.69 65.5 66.7 65.38 66.73 65.23L66.79 64.9L67.31 62.32H68.15L68.21 61.99H67.37L67.55 61.07L66.77 61.25L66.62 61.99H66.2L66.14 62.32H66.56L66.06 64.8C66 65.11 65.97 65.34 65.97 65.49C65.97 65.94 66.23 66.17 66.74 66.17C66.91 66.17 67.09 66.13 67.3 66.05L67.37 65.76ZM65.12 66.08L65.17 65.85H65.1C64.81 65.83 64.67 65.76 64.67 65.64C64.67 65.62 64.68 65.57 64.7 65.49L64.77 65.12L65.39 62.01H64.1L64.05 62.24H64.12C64.4 62.25 64.54 62.33 64.54 62.45C64.54 62.47 64.53 62.52 64.51 62.61L64.44 62.98L64.02 65.11L63.94 65.48C63.91 65.61 63.88 65.7 63.85 65.75C63.83 65.79 63.68 65.82 63.4 65.84H63.33L63.28 66.07H65.12V66.08ZM65.54 61.26L65.69 60.52H64.94L64.79 61.26H65.54ZM62.79 65.76C62.64 65.84 62.51 65.88 62.41 65.88C62.21 65.88 62.11 65.78 62.11 65.58C62.11 65.5 62.12 65.38 62.15 65.23L62.21 64.9L62.73 62.32H63.57L63.64 61.99H62.8L62.98 61.07L62.2 61.25L62.05 61.99H61.63L61.57 62.32H61.99L61.49 64.8C61.43 65.11 61.4 65.34 61.4 65.49C61.4 65.94 61.66 66.17 62.17 66.17C62.34 66.17 62.52 66.13 62.73 66.05L62.79 65.76ZM59.09 66.17C59.54 66.17 59.91 66.03 60.19 65.75C60.47 65.47 60.62 65.12 60.62 64.7C60.62 64.52 60.58 64.36 60.5 64.25C60.43 64.15 60.27 64 60.02 63.8L59.84 63.66L59.56 63.45C59.4 63.33 59.33 63.18 59.33 62.99C59.33 62.75 59.39 62.55 59.52 62.39C59.64 62.24 59.81 62.16 60.02 62.16C60.26 62.16 60.38 62.28 60.38 62.53C60.38 62.68 60.37 62.82 60.34 62.96L60.33 63.03H60.7L60.88 62.15C60.61 62 60.32 61.92 60.01 61.92C59.59 61.92 59.25 62.05 58.98 62.31C58.72 62.57 58.59 62.89 58.59 63.27C58.59 63.58 58.81 63.9 59.24 64.24L59.43 64.39C59.7 64.6 59.83 64.81 59.83 65.05C59.83 65.34 59.76 65.57 59.62 65.72C59.49 65.87 59.3 65.94 59.06 65.94C58.69 65.94 58.51 65.77 58.51 65.44C58.51 65.39 58.52 65.34 58.52 65.28L58.56 65.01L58.57 64.94H58.2L58.01 65.88C58.37 66.07 58.73 66.17 59.09 66.17ZM55.4 66.08L55.44 65.85H55.37C55.15 65.84 55.03 65.77 55.03 65.64C55.03 65.62 55.04 65.59 55.05 65.54C55.06 65.51 55.06 65.49 55.06 65.48L55.12 65.11L55.56 62.93C55.93 62.58 56.26 62.4 56.56 62.4C56.76 62.4 56.86 62.5 56.86 62.69C56.86 62.76 56.85 62.87 56.82 63.04L56.77 63.33L56.41 65.12L56.33 65.49C56.3 65.62 56.27 65.71 56.22 65.76C56.18 65.81 56.06 65.84 55.87 65.86H55.8L55.75 66.09H57.4L57.45 65.86H57.38C57.16 65.85 57.04 65.78 57.04 65.65C57.04 65.64 57.05 65.6 57.06 65.55L57.07 65.49L57.14 65.12L57.52 63.22C57.58 62.93 57.61 62.71 57.61 62.56C57.61 62.13 57.38 61.92 56.91 61.92C56.49 61.92 56.05 62.17 55.59 62.68L55.73 62.01H54.53L54.49 62.24H54.56C54.78 62.25 54.89 62.32 54.89 62.45C54.89 62.47 54.88 62.53 54.86 62.61L54.8 62.98L54.37 65.11L54.29 65.48C54.26 65.61 54.23 65.7 54.18 65.75C54.14 65.8 54.02 65.84 53.84 65.85H53.77L53.72 66.08H55.4ZM53.21 66.08L53.26 65.85H53.19L52.94 65.83C52.75 65.82 52.65 65.75 52.65 65.63C52.65 65.5 52.67 65.33 52.71 65.12L53.43 61.5L53.53 61.13C53.57 61.01 53.6 60.92 53.64 60.87C53.68 60.82 53.78 60.79 53.94 60.78L54.2 60.77L54.27 60.76L54.31 60.53H52.13L52.09 60.76L52.16 60.77L52.41 60.78C52.6 60.79 52.7 60.86 52.7 60.98C52.7 61.11 52.68 61.28 52.64 61.5L51.92 65.12C51.87 65.37 51.82 65.54 51.77 65.64C51.71 65.76 51.59 65.83 51.4 65.84L51.14 65.86H51.07L51.03 66.09H53.21V66.08ZM47.42 62.63C47.61 62.32 47.84 62.16 48.1 62.16C48.39 62.16 48.54 62.34 48.54 62.69C48.54 62.85 48.5 63.11 48.43 63.47L48.4 63.64H47.06C47.17 63.19 47.29 62.85 47.42 62.63ZM48.81 65.52C48.45 65.71 48.12 65.8 47.81 65.8C47.22 65.8 46.92 65.45 46.92 64.75C46.92 64.54 46.95 64.25 47.02 63.88H49.14L49.15 63.81C49.22 63.48 49.26 63.21 49.26 62.97C49.26 62.26 48.91 61.91 48.22 61.91C47.64 61.91 47.15 62.19 46.73 62.75C46.31 63.31 46.1 63.96 46.1 64.69C46.1 65.17 46.23 65.53 46.49 65.79C46.75 66.05 47.1 66.18 47.54 66.18C47.88 66.18 48.29 66.09 48.74 65.9L48.81 65.52ZM43.32 66.08L43.37 65.85H43.3C43.08 65.84 42.97 65.77 42.97 65.64C42.97 65.62 42.98 65.59 42.99 65.54C43 65.51 43 65.49 43 65.48L43.07 65.11L43.51 62.93C43.88 62.58 44.21 62.4 44.51 62.4C44.71 62.4 44.82 62.5 44.82 62.69C44.82 62.76 44.81 62.87 44.78 63.04L44.73 63.33L44.37 65.12L44.29 65.49C44.26 65.62 44.23 65.71 44.19 65.76C44.15 65.81 44.03 65.84 43.84 65.86H43.77L43.73 66.09H45.38L45.42 65.86H45.35C45.13 65.85 45.02 65.78 45.02 65.65C45.02 65.64 45.03 65.6 45.04 65.55L45.05 65.49L45.12 65.12L45.5 63.22C45.56 62.93 45.59 62.71 45.59 62.56C45.59 62.13 45.36 61.92 44.9 61.92C44.48 61.92 44.04 62.17 43.58 62.68L44.08 60.15H42.88L42.84 60.38H42.91C43.13 60.39 43.24 60.46 43.24 60.58C43.24 60.6 43.23 60.66 43.21 60.74L43.14 61.11L42.34 65.1L42.26 65.47C42.23 65.6 42.2 65.69 42.15 65.74C42.11 65.79 41.99 65.83 41.81 65.84H41.74L41.69 66.07H43.32V66.08ZM40.3 66.08L40.34 65.85H40.18L39.93 65.83C39.74 65.82 39.64 65.75 39.64 65.63C39.64 65.48 39.66 65.31 39.7 65.11L40.56 60.82H41.3C41.74 60.82 41.96 60.89 41.96 61.03C41.96 61.05 41.95 61.07 41.94 61.11C41.94 61.12 41.93 61.13 41.93 61.14C41.92 61.17 41.91 61.23 41.9 61.33L41.88 61.45L41.87 61.53H42.26L42.46 60.51H37.99L37.78 61.53H38.17L38.19 61.45C38.21 61.39 38.23 61.29 38.25 61.17C38.27 61.06 38.3 60.97 38.33 60.92C38.36 60.86 38.46 60.83 38.63 60.83L39.02 60.81H39.76L38.9 65.1C38.84 65.42 38.77 65.63 38.69 65.73C38.66 65.76 38.62 65.78 38.57 65.79C38.44 65.82 38.29 65.83 38.13 65.84H37.96L37.92 66.07H40.3V66.08Z" fill="black"/>
<path d="M89.08 56.1C90.24 56.1 91.17 55.8 91.86 55.19C92.56 54.58 92.9 53.81 92.9 52.87C92.9 52.16 92.71 51.57 92.32 51.11C91.93 50.64 91.2 50.12 90.13 49.54L89.14 49.01C88.51 48.67 88.09 48.36 87.88 48.05C87.66 47.75 87.55 47.34 87.55 46.82C87.55 45.55 88.21 44.91 89.54 44.91C90.26 44.91 90.76 45.03 91.05 45.26C91.3 45.46 91.42 45.75 91.42 46.13V46.17C91.43 46.34 91.43 46.52 91.45 46.72L91.46 46.85H92.29V44.87C91.18 44.56 90.23 44.4 89.43 44.4C88.42 44.4 87.6 44.67 86.98 45.22C86.35 45.77 86.04 46.47 86.04 47.32C86.04 48.52 86.89 49.58 88.6 50.49L89.59 51.02C90.31 51.41 90.78 51.76 91 52.06C91.23 52.37 91.34 52.81 91.34 53.4C91.34 54.81 90.61 55.52 89.14 55.52C88.36 55.52 87.74 55.37 87.3 55.05C86.96 54.81 86.78 54.5 86.78 54.12V54.08C86.78 53.93 86.77 53.76 86.76 53.56L86.75 53.42H85.96V55.56C86.87 55.93 87.92 56.1 89.08 56.1ZM78.22 45.2C79.92 45.2 81.14 45.59 81.89 46.38C82.64 47.17 83.02 48.46 83.02 50.24C83.02 51.86 82.67 53.12 81.98 54C81.29 54.88 80.3 55.31 79.02 55.31C78.55 55.31 78.2 55.26 77.97 55.17C77.7 55.05 77.55 54.82 77.53 54.46L77.5 53.87V45.2H78.22ZM74.53 45.15L74.67 45.16L75.17 45.19C75.47 45.2 75.67 45.28 75.76 45.41C75.8 45.47 75.84 45.6 75.87 45.79C75.91 46.06 75.92 46.34 75.92 46.63V53.86C75.92 54.27 75.89 54.63 75.82 54.94C75.77 55.14 75.55 55.26 75.17 55.29L74.67 55.33L74.53 55.34V55.81H79.39C81.04 55.81 82.35 55.29 83.31 54.25C84.27 53.21 84.75 51.8 84.75 50C84.75 48.1 84.19 46.68 83.07 45.77C82.13 45 80.89 44.62 79.34 44.64L78.8 44.65L78.26 44.67L77.73 44.68H74.53V45.15ZM66.72 45.2H67.79C68.67 45.2 69.29 45.38 69.66 45.75C70.03 46.12 70.21 46.74 70.21 47.6C70.21 49.48 69.23 50.42 67.28 50.42H66.72V45.2ZM63.75 45.15L63.89 45.16L64.39 45.19C64.69 45.2 64.89 45.28 64.98 45.41C65.02 45.47 65.05 45.6 65.08 45.79C65.12 46.06 65.13 46.34 65.13 46.63V53.86C65.13 54.27 65.1 54.63 65.03 54.94C64.98 55.14 64.76 55.26 64.38 55.29L63.88 55.33L63.74 55.34V55.81H67.91V55.34L67.78 55.33C67.36 55.3 67.09 55.26 66.96 55.21C66.83 55.16 66.76 54.95 66.75 54.6L66.71 53.86V50.91H68L71.04 55.8H73.69V55.33L73.21 55.3C72.88 55.28 72.61 55.11 72.4 54.8L71.7 53.83L69.52 50.55C70.15 50.31 70.63 50.02 70.97 49.69C71.54 49.12 71.82 48.37 71.82 47.43C71.82 46.33 71.42 45.55 70.63 45.09C70.02 44.74 69.27 44.58 68.37 44.61L67.77 44.63L67.15 44.65L66.41 44.66H63.75V45.15ZM56.91 46.71L59.02 51.78H54.77L56.91 46.71ZM54.32 55.82V55.35H54.2C53.74 55.35 53.51 55.25 53.51 55.05C53.51 54.98 53.52 54.9 53.55 54.8L53.72 54.27C53.74 54.19 53.8 54.06 53.89 53.86L54.53 52.38H59.29L59.91 53.86C60.12 54.36 60.23 54.74 60.23 55.01C60.23 55.23 59.97 55.34 59.46 55.34H59.33V55.81H63V55.34L62.83 55.33C62.47 55.31 62.19 55.1 61.99 54.68L61.61 53.91L57.71 44.54H57.18L53.26 53.86L52.91 54.65C52.8 54.91 52.71 55.07 52.63 55.15C52.55 55.25 52.35 55.31 52.03 55.33L51.86 55.34V55.81H54.32V55.82ZM43.2 55.96L45.98 47.4L48.4 55.96H48.9L51.77 46.68L52.09 45.65C52.19 45.34 52.38 45.19 52.68 45.18L53.13 45.17L53.26 45.16V44.7H50.2V45.16H50.34L50.85 45.17C51.29 45.18 51.51 45.26 51.51 45.43C51.51 45.58 51.4 46.01 51.19 46.7L49.12 53.4L46.7 44.84H46.17L43.46 53.17L41.71 46.7C41.56 46.16 41.49 45.79 41.49 45.59C41.49 45.33 41.73 45.2 42.2 45.18L42.61 45.17H42.76V44.71H38.73V45.17L38.9 45.18L39.34 45.19C39.63 45.19 39.81 45.36 39.89 45.71C39.9 45.77 39.99 46.1 40.15 46.7L42.68 55.98H43.2V55.96ZM33.85 46.71L35.96 51.78H31.71L33.85 46.71ZM31.26 55.82V55.35H31.14C30.68 55.35 30.45 55.25 30.45 55.05C30.45 54.98 30.46 54.9 30.49 54.8L30.66 54.27C30.68 54.19 30.74 54.06 30.83 53.86L31.47 52.38H36.23L36.85 53.86C37.06 54.36 37.17 54.74 37.17 55.01C37.17 55.23 36.91 55.34 36.4 55.34H36.26V55.81H39.94V55.34L39.77 55.33C39.41 55.31 39.13 55.1 38.93 54.68L38.55 53.91L34.65 44.54H34.12L30.21 53.86L29.86 54.65C29.75 54.91 29.66 55.07 29.58 55.15C29.5 55.25 29.3 55.31 28.98 55.33L28.81 55.34V55.81H31.26V55.82Z" fill="black"/>
<path d="M86.88 31.47L87.02 31.48L87.53 31.51C87.86 31.53 88.06 31.62 88.14 31.78C88.23 31.98 88.28 32.38 88.27 32.95V40.18C88.27 40.78 88.23 41.16 88.14 41.33C88.05 41.5 87.85 41.59 87.53 41.62L87.02 41.66L86.88 41.67V42.14H90.38V41.67L90.24 41.66L89.73 41.62C89.4 41.6 89.2 41.51 89.12 41.35C89.02 41.15 88.98 40.76 88.99 40.18V32.96L95.44 42.28H95.97V32.95L96.01 32.21C96.02 31.98 96.06 31.82 96.12 31.71C96.17 31.59 96.37 31.53 96.71 31.51L97.22 31.48L97.36 31.47V31.01H93.89V31.47L94.03 31.48L94.54 31.51C94.77 31.52 94.94 31.56 95.04 31.62C95.15 31.68 95.22 31.88 95.24 32.21L95.28 32.95V39.64L89.39 31H86.88V31.47ZM79.98 33.03L82.09 38.1H77.84L79.98 33.03ZM77.4 42.13V41.66H77.28C76.82 41.66 76.59 41.56 76.59 41.36C76.59 41.29 76.6 41.21 76.63 41.11L76.8 40.58C76.82 40.51 76.88 40.37 76.97 40.17L77.61 38.69H82.37L82.99 40.17C83.2 40.67 83.31 41.05 83.31 41.32C83.31 41.54 83.05 41.65 82.54 41.65H82.4V42.12H86.08V41.65L85.91 41.64C85.55 41.62 85.27 41.4 85.07 40.99L84.69 40.22L80.79 30.85H80.26L76.34 40.17L75.99 40.96C75.88 41.22 75.79 41.38 75.71 41.46C75.63 41.56 75.43 41.62 75.11 41.64L74.94 41.65V42.12H77.4V42.13ZM61.18 31.01V31.47L61.32 31.48L61.83 31.51C62.16 31.53 62.36 31.62 62.44 31.78C62.54 31.99 62.58 32.38 62.58 32.95L62.57 40.18C62.57 40.78 62.53 41.17 62.44 41.33C62.36 41.5 62.15 41.59 61.83 41.61L61.32 41.65L61.18 41.66V42.13H64.79V41.66L64.65 41.65L64.14 41.61C63.95 41.6 63.8 41.56 63.7 41.51C63.58 41.44 63.5 41.28 63.46 41.02C63.42 40.74 63.4 40.46 63.4 40.18V32.87L67.04 41.24H67.59L71.28 32.54V40.18L71.24 40.92C71.23 41.15 71.19 41.31 71.14 41.41C71.08 41.52 70.89 41.59 70.55 41.61L70.05 41.65L69.92 41.66V42.13H74.16V41.66L74.02 41.65L73.51 41.61C73.27 41.6 73.11 41.56 73.01 41.51C72.9 41.45 72.83 41.26 72.81 40.92L72.77 40.18V32.95L72.81 32.21C72.82 31.98 72.86 31.82 72.91 31.71C72.97 31.6 73.16 31.53 73.5 31.51L74.01 31.48L74.15 31.47V31.01H71.35L67.85 39.21L64.29 31.01H61.18ZM50.29 42.28L53.07 33.72L55.49 42.28H55.99L58.86 33L59.18 31.97C59.28 31.66 59.47 31.51 59.77 31.5L60.22 31.49L60.35 31.48V31.02H57.29V31.48H57.43L57.94 31.49C58.38 31.5 58.6 31.59 58.6 31.75C58.6 31.91 58.49 32.33 58.28 33.02L56.21 39.72L53.79 31.16H53.26L50.55 39.49L48.8 33.02C48.65 32.48 48.58 32.11 48.58 31.91C48.58 31.65 48.81 31.52 49.29 31.5L49.7 31.49H49.85V31.03H45.82V31.49L45.98 31.5L46.42 31.51C46.71 31.51 46.89 31.68 46.97 32.03C46.98 32.08 47.07 32.42 47.23 33.02L49.76 42.3H50.29V42.28ZM36.52 31.47L36.66 31.48L37.16 31.51C37.46 31.52 37.66 31.6 37.75 31.73C37.79 31.79 37.82 31.92 37.85 32.11C37.89 32.38 37.9 32.66 37.9 32.95V40.18C37.9 40.59 37.87 40.95 37.8 41.26C37.75 41.46 37.53 41.58 37.15 41.61L36.65 41.65L36.51 41.66V42.13H45.22V40.09H44.39L44.38 40.22L44.35 40.9C44.34 41.15 44.23 41.3 44.03 41.37C43.84 41.44 43.38 41.47 42.64 41.47H40.76C40.29 41.47 39.96 41.42 39.78 41.33C39.58 41.24 39.48 40.85 39.48 40.17V36.64H42.21C42.61 36.64 42.87 36.67 42.99 36.72C43.11 36.76 43.19 36.99 43.22 37.43L43.23 37.57H43.84V35.12H43.23L43.22 35.26C43.21 35.41 43.21 35.51 43.21 35.57C43.21 35.73 43.19 35.84 43.15 35.91C43.11 35.98 42.96 36.03 42.69 36.03L42.22 36.04L39.49 36.05V31.6H42.61L43.38 31.61C43.56 31.61 43.7 31.63 43.79 31.68C43.88 31.73 43.93 31.9 43.93 32.18L43.97 32.81L43.98 32.95H44.81V31H36.52V31.47ZM25.09 31.47L25.23 31.48L25.74 31.51C26.07 31.53 26.27 31.62 26.35 31.78C26.44 31.98 26.49 32.38 26.48 32.95V40.18C26.48 40.78 26.44 41.16 26.35 41.33C26.26 41.5 26.06 41.59 25.74 41.62L25.23 41.66L25.09 41.67V42.14H28.59V41.67L28.45 41.66L27.94 41.62C27.61 41.6 27.41 41.51 27.33 41.35C27.23 41.15 27.19 40.76 27.19 40.18V32.96L33.64 42.28H34.17V32.95L34.21 32.21C34.22 31.98 34.26 31.82 34.31 31.71C34.37 31.59 34.56 31.53 34.9 31.51L35.41 31.48L35.54 31.47V31.01H32.08V31.47L32.22 31.48L32.73 31.51C32.96 31.52 33.12 31.56 33.23 31.62C33.34 31.68 33.41 31.88 33.43 32.21L33.48 32.95V39.64L27.59 31H25.09V31.47Z" fill="black"/>
<path d="M88.45 26.31C88.43 26.41 88.32 26.47 88.13 26.49L87.88 26.51H87.81V26.74H89.99V26.51H89.92L89.66 26.49C89.51 26.48 89.42 26.44 89.37 26.38C89.35 26.35 89.33 26.29 89.32 26.19C89.3 26.06 89.29 25.92 89.29 25.77V22.15C89.29 21.95 89.31 21.77 89.34 21.61C89.36 21.5 89.47 21.45 89.66 21.43L89.92 21.41L89.99 21.4V21.17H87.81V21.4L87.88 21.41L88.13 21.43C88.28 21.44 88.38 21.47 88.42 21.54C88.44 21.57 88.46 21.63 88.47 21.73C88.49 21.86 88.5 22 88.5 22.15V25.77C88.5 25.97 88.49 26.15 88.45 26.31ZM84.05 21.43C84.9 21.43 85.51 21.63 85.89 22.02C86.27 22.42 86.45 23.06 86.45 23.95C86.45 24.76 86.28 25.39 85.93 25.83C85.59 26.27 85.09 26.49 84.45 26.49C84.22 26.49 84.04 26.47 83.92 26.42C83.79 26.36 83.71 26.24 83.7 26.07L83.69 25.78V21.44H84.05V21.43ZM82.2 21.18V21.41L82.27 21.42L82.52 21.44C82.67 21.45 82.77 21.48 82.81 21.55C82.83 21.58 82.85 21.64 82.86 21.74C82.88 21.87 82.89 22.01 82.89 22.16V25.78C82.89 25.98 82.87 26.17 82.84 26.32C82.82 26.42 82.71 26.48 82.52 26.5L82.27 26.52H82.2V26.75H84.63C85.46 26.75 86.11 26.49 86.59 25.97C87.07 25.45 87.31 24.74 87.31 23.85C87.31 22.9 87.03 22.19 86.47 21.73C86 21.34 85.38 21.16 84.61 21.17H84.34L84.07 21.18H82.2ZM76.2 21.18V21.41L76.27 21.42L76.52 21.44C76.67 21.45 76.77 21.48 76.81 21.55C76.83 21.58 76.85 21.64 76.86 21.74C76.88 21.87 76.89 22.01 76.89 22.16V24.67C76.89 26.15 77.57 26.89 78.94 26.89C79.62 26.89 80.13 26.69 80.47 26.3C80.64 26.1 80.76 25.87 80.82 25.63C80.88 25.39 80.91 25.01 80.91 24.49V22.16C80.91 21.96 80.93 21.78 80.96 21.62C80.98 21.51 81.09 21.46 81.28 21.44L81.54 21.42L81.61 21.41V21.18H79.83V21.41L79.9 21.42L80.16 21.44C80.32 21.45 80.43 21.49 80.46 21.57C80.51 21.68 80.53 21.87 80.53 22.16V24.7C80.53 25.07 80.52 25.35 80.49 25.55C80.46 25.78 80.37 25.98 80.23 26.15C79.96 26.47 79.57 26.63 79.07 26.63C78.59 26.63 78.23 26.47 77.98 26.16C77.86 26 77.78 25.83 77.75 25.66C77.72 25.48 77.71 25.11 77.71 24.54V22.16L77.73 21.79C77.74 21.67 77.76 21.59 77.78 21.54C77.81 21.49 77.91 21.45 78.08 21.44L78.34 21.42L78.41 21.41V21.18H76.2ZM73.33 27.86C73.85 27.86 74.25 27.68 74.54 27.33C74.79 27.03 74.91 26.49 74.91 25.73V22.16L74.93 21.79C74.94 21.67 74.96 21.59 74.98 21.54C75.01 21.49 75.11 21.45 75.28 21.44L75.53 21.42L75.6 21.41V21.18H73.42V21.41L73.49 21.42L73.75 21.44C73.91 21.45 74.02 21.49 74.05 21.57C74.09 21.66 74.12 21.86 74.11 22.16V26.19C74.11 26.67 74.09 27.01 74.04 27.21C73.99 27.44 73.84 27.55 73.59 27.55C73.43 27.55 73.32 27.51 73.26 27.44C73.21 27.38 73.17 27.23 73.15 27.01L73.14 26.92H72.7V27.78C72.98 27.83 73.18 27.86 73.33 27.86ZM66.91 22.03C66.91 21.81 66.97 21.63 67.1 21.5C67.22 21.36 67.4 21.3 67.61 21.3C68.06 21.3 68.28 21.55 68.28 22.05C68.28 22.36 68.19 22.64 68.01 22.88C67.89 23.05 67.71 23.21 67.46 23.38C67.09 22.82 66.91 22.37 66.91 22.03ZM67.54 26.46C67.06 26.46 66.67 26.31 66.38 26.02C66.09 25.73 65.94 25.35 65.94 24.88C65.94 24.53 66.03 24.24 66.21 24.02C66.33 23.86 66.51 23.72 66.75 23.6C67.41 24.61 68.03 25.46 68.63 26.16C68.3 26.36 67.93 26.46 67.54 26.46ZM70.57 26.51H70.52L70.18 26.49C70.04 26.48 69.91 26.43 69.79 26.34C69.74 26.3 69.67 26.23 69.59 26.15C69.55 26.11 69.51 26.07 69.48 26.03L69.44 25.99L69.43 25.98C69.42 25.96 69.39 25.94 69.37 25.92L69.35 25.89L69.33 25.87C69.8 25.28 70.03 24.77 70.03 24.35C70.03 24.25 70.04 24.18 70.06 24.14C70.08 24.09 70.14 24.06 70.24 24.06L70.54 24.05H70.62V23.82H68.86V24.05H68.93L69.06 24.06C69.16 24.07 69.22 24.07 69.25 24.07C69.41 24.07 69.49 24.14 69.49 24.29L69.5 24.5C69.5 24.97 69.39 25.36 69.16 25.69L68.88 25.3L68.34 24.57L67.81 23.85L67.6 23.57C67.99 23.45 68.28 23.3 68.48 23.15C68.82 22.89 68.98 22.57 68.98 22.17C68.98 21.83 68.86 21.56 68.61 21.36C68.36 21.16 68.03 21.06 67.59 21.06C67.15 21.06 66.81 21.17 66.55 21.4C66.29 21.62 66.17 21.92 66.17 22.28C66.17 22.62 66.33 23 66.64 23.43C66.24 23.58 65.93 23.74 65.72 23.93C65.37 24.24 65.2 24.64 65.2 25.13C65.2 25.65 65.38 26.07 65.75 26.41C66.12 26.75 66.59 26.91 67.15 26.91C67.69 26.91 68.24 26.73 68.8 26.38L69.15 26.77H70.57V26.51ZM60.16 25.77C60.16 25.97 60.14 26.16 60.11 26.31C60.08 26.41 59.98 26.47 59.79 26.49L59.53 26.51H59.37V26.74H61.73V26.51H61.57L61.31 26.49C61.21 26.48 61.14 26.46 61.09 26.44C61.03 26.4 60.99 26.32 60.97 26.2C60.95 26.06 60.94 25.92 60.94 25.78V21.49H61.68L62.07 21.51C62.2 21.51 62.28 21.53 62.32 21.56C62.36 21.6 62.38 21.7 62.38 21.85V21.91C62.38 21.99 62.38 22.07 62.39 22.12V22.2H62.78V21.18H58.31V22.2H58.7L58.71 22.12C58.71 22.11 58.71 22.05 58.71 21.97V21.86C58.71 21.73 58.72 21.64 58.74 21.6C58.76 21.54 58.86 21.51 59.02 21.51L59.41 21.49H60.15V25.77H60.16ZM55.22 21.43C55.66 21.43 55.97 21.52 56.15 21.7C56.33 21.88 56.42 22.19 56.42 22.62C56.42 23.56 55.93 24.03 54.95 24.03H54.67V21.43H55.22ZM53.21 21.18V21.41L53.28 21.42L53.53 21.44C53.68 21.45 53.78 21.48 53.82 21.55C53.84 21.58 53.86 21.64 53.87 21.74C53.89 21.87 53.9 22.01 53.9 22.16V25.78C53.9 25.98 53.88 26.17 53.85 26.32C53.82 26.42 53.72 26.48 53.53 26.5L53.28 26.52H53.21V26.75H55.3V26.52H55.23C55.02 26.51 54.89 26.49 54.82 26.46C54.75 26.43 54.72 26.33 54.71 26.16L54.69 25.79V24.32H55.33L56.85 26.77H58.18V26.54H58.1L57.94 26.53C57.78 26.52 57.64 26.43 57.53 26.28L57.18 25.8L56.09 24.16C56.41 24.04 56.65 23.9 56.82 23.73C57.1 23.45 57.24 23.07 57.24 22.6C57.24 22.05 57.04 21.66 56.65 21.43C56.35 21.26 55.97 21.18 55.52 21.19L55.22 21.2L54.91 21.21L54.54 21.22H53.21V21.18ZM48.21 21.41L48.28 21.42L48.53 21.44C48.68 21.45 48.78 21.48 48.82 21.55C48.84 21.58 48.86 21.64 48.87 21.74C48.89 21.87 48.9 22.01 48.9 22.16V25.78C48.9 25.98 48.88 26.17 48.85 26.32C48.82 26.42 48.72 26.48 48.53 26.5L48.28 26.52H48.21V26.75H52.57V25.73H52.15V25.8L52.14 26.14C52.13 26.26 52.08 26.34 51.98 26.37C51.89 26.41 51.65 26.42 51.29 26.42H50.35C50.12 26.42 49.95 26.4 49.86 26.35C49.76 26.31 49.71 26.11 49.71 25.77V24H51.08C51.28 24 51.41 24.01 51.47 24.04C51.53 24.06 51.57 24.18 51.58 24.39V24.46H51.88V23.23H51.58V23.3C51.57 23.37 51.57 23.42 51.57 23.45C51.57 23.53 51.56 23.59 51.54 23.62C51.52 23.66 51.44 23.68 51.31 23.68L51.07 23.69H49.7V21.47H51.65C51.74 21.47 51.81 21.48 51.85 21.5C51.89 21.53 51.92 21.61 51.92 21.75L51.94 22.07V22.14H52.36V21.17H48.21V21.41ZM44.93 21.43C45.48 21.43 45.87 21.49 46.11 21.6C46.4 21.74 46.54 22.04 46.54 22.49C46.54 22.93 46.42 23.25 46.17 23.44C45.93 23.63 45.53 23.72 44.96 23.72H44.54V21.43H44.93ZM46.13 24.22C46.55 24.42 46.77 24.8 46.77 25.36C46.77 26.11 46.28 26.49 45.31 26.49C45.06 26.49 44.88 26.47 44.77 26.44C44.65 26.4 44.59 26.29 44.58 26.1L44.57 25.77V23.98C45.27 23.99 45.8 24.07 46.13 24.22ZM46.34 23.75C46.62 23.66 46.84 23.53 47.01 23.36C47.24 23.12 47.36 22.8 47.36 22.42C47.36 21.92 47.15 21.56 46.73 21.34C46.52 21.23 46.13 21.18 45.56 21.18H43.09V21.41L43.16 21.42L43.41 21.44C43.56 21.45 43.66 21.48 43.7 21.55C43.72 21.58 43.74 21.64 43.75 21.74C43.77 21.87 43.78 22.01 43.78 22.16V25.78C43.78 25.98 43.76 26.17 43.73 26.32C43.7 26.42 43.6 26.48 43.41 26.5L43.16 26.52H43.09V26.75H45.45C46.29 26.75 46.86 26.62 47.16 26.36C47.45 26.11 47.59 25.78 47.59 25.35C47.59 24.81 47.37 24.42 46.92 24.16C46.67 24.02 46.33 23.92 45.88 23.86C46.08 23.82 46.23 23.78 46.34 23.75ZM41.27 22C41.56 22.47 41.7 23.12 41.7 23.95C41.7 24.88 41.52 25.59 41.17 26.06C40.89 26.44 40.52 26.63 40.06 26.63C39.56 26.63 39.17 26.39 38.89 25.91C38.61 25.43 38.46 24.78 38.46 23.96C38.46 23.13 38.6 22.48 38.89 22.01C39.18 21.54 39.57 21.3 40.08 21.3C40.59 21.29 40.98 21.53 41.27 22ZM38.27 21.82C37.83 22.34 37.6 23.05 37.6 23.95C37.6 24.94 37.87 25.7 38.4 26.23C38.82 26.65 39.37 26.87 40.04 26.87C40.83 26.87 41.44 26.61 41.89 26.09C42.34 25.57 42.56 24.86 42.56 23.94C42.56 23.04 42.34 22.33 41.89 21.81C41.45 21.29 40.84 21.03 40.08 21.03C39.32 21.04 38.72 21.3 38.27 21.82ZM34.39 21.43C34.83 21.43 35.14 21.52 35.33 21.7C35.51 21.88 35.6 22.19 35.6 22.62C35.6 23.56 35.11 24.03 34.13 24.03H33.85V21.43H34.39ZM32.37 21.18V21.41L32.44 21.42L32.69 21.44C32.84 21.45 32.94 21.48 32.98 21.55C33 21.58 33.02 21.64 33.03 21.74C33.05 21.87 33.06 22.01 33.06 22.16V25.78C33.06 25.98 33.04 26.17 33.01 26.32C32.99 26.42 32.88 26.48 32.69 26.5L32.44 26.52H32.37V26.75H34.46V26.52H34.39C34.18 26.51 34.05 26.49 33.98 26.46C33.91 26.43 33.88 26.33 33.88 26.16L33.86 25.79V24.32H34.5L36.02 26.77H37.35V26.54H37.27L37.11 26.53C36.95 26.52 36.81 26.43 36.7 26.28L36.35 25.8L35.26 24.16C35.57 24.04 35.82 23.9 35.98 23.73C36.26 23.45 36.4 23.07 36.4 22.6C36.4 22.05 36.2 21.66 35.81 21.43C35.51 21.26 35.13 21.18 34.68 21.19L34.38 21.2L34.07 21.21L33.7 21.22H32.37V21.18Z" fill="black"/>
</svg>
